<mxfile host="65bd71144e">
    <diagram id="72oKXvBvLh29MuYLqfbS" name="ページ1">
        <mxGraphModel dx="851" dy="606" grid="1" gridSize="10" guides="1" tooltips="1" connect="1" arrows="1" fold="1" page="1" pageScale="1" pageWidth="827" pageHeight="1169" math="0" shadow="0">
            <root>
                <mxCell id="0"/>
                <mxCell id="1" parent="0"/>
                <mxCell id="30" value="イメージ図" style="rounded=0;whiteSpace=wrap;html=1;strokeWidth=3;strokeColor=none;verticalAlign=top;" vertex="1" parent="1">
                    <mxGeometry x="20" y="70" width="700" height="310" as="geometry"/>
                </mxCell>
                <mxCell id="2" value="AWSサーバ群" style="rounded=0;whiteSpace=wrap;html=1;fillColor=#CCCCCC;" vertex="1" parent="1">
                    <mxGeometry x="40" y="320" width="540" height="40" as="geometry"/>
                </mxCell>
                <mxCell id="3" value="Nitroシステム（AWSハイパーバイザー）" style="rounded=0;whiteSpace=wrap;html=1;fillColor=#CCCCCC;" vertex="1" parent="1">
                    <mxGeometry x="40" y="280" width="540" height="40" as="geometry"/>
                </mxCell>
                <mxCell id="4" value="Proxmox 8.3（Debian12 ベース）" style="rounded=0;whiteSpace=wrap;html=1;fillColor=#d5e8d4;strokeColor=#82b366;" vertex="1" parent="1">
                    <mxGeometry x="40" y="200" width="540" height="40" as="geometry"/>
                </mxCell>
                <mxCell id="5" value="VMware&amp;nbsp;ESXi #n" style="rounded=0;whiteSpace=wrap;html=1;fillColor=#f8cecc;strokeColor=#b85450;" vertex="1" parent="1">
                    <mxGeometry x="290" y="160" width="189" height="40" as="geometry"/>
                </mxCell>
                <mxCell id="6" value="ベアメタルインスタンス（EC2）" style="rounded=0;whiteSpace=wrap;html=1;fillColor=#d5e8d4;strokeColor=#82b366;" vertex="1" parent="1">
                    <mxGeometry x="40" y="240" width="540" height="40" as="geometry"/>
                </mxCell>
                <mxCell id="7" value="VMware ESXi #1" style="rounded=0;whiteSpace=wrap;html=1;fillColor=#f8cecc;strokeColor=#b85450;" vertex="1" parent="1">
                    <mxGeometry x="40" y="160" width="189" height="40" as="geometry"/>
                </mxCell>
                <mxCell id="10" value="・・・" style="text;html=1;align=center;verticalAlign=middle;resizable=0;points=[];autosize=1;strokeColor=none;fillColor=none;fontStyle=1" vertex="1" parent="1">
                    <mxGeometry x="229" y="165" width="60" height="30" as="geometry"/>
                </mxCell>
                <mxCell id="11" value="" style="shape=image;verticalLabelPosition=bottom;labelBackgroundColor=default;verticalAlign=top;aspect=fixed;imageAspect=0;image=data:image/png,iVBORw0KGgoAAAANSUhEUgAAAyAAAAMgCAYAAADbcAZoAAAAAXNSR0IArs4c6QAAAERlWElmTU0AKgAAAAgAAYdpAAQAAAABAAAAGgAAAAAAA6ABAAMAAAABAAEAAKACAAQAAAABAAADIKADAAQAAAABAAADIAAAAADAlM0/AABAAElEQVR4AezdCXwdZb3/8d9J0kKrtAWktEkru16vFxAVN/ZCWcq+Sb2AUsDK1iYpm1xRIuJFtiahgCwqCAWRfd+KLBdwAfQvICoiIDRJy1JaQNrSNjn/7xNaaEua5Jz5nWXO85nX62lzzpn5zfO8Z3Iyz8yzmLEggAACCCCAAAIIIIAAAggggAACCCCAAAIIIIAAAggggAACCCCAAAIIIIAAAggggAACCCCAAAIIIIAAAggggAACCCCAAAIIIIAAAggggAACCCCAAAIIIIAAAggggAACCCCAAAIIIIAAAggggAACCCCAAAIIIIAAAggggAACCCCAAAIIIIAAAggggAACCCCAAAIIIIAAAggggAACCCCAAAIIIIAAAggggAACCCCAAAIIIIAAAggggAACCCCAAAIIIIAAAggggAACCCCAAAIIIIAAAggggAACCCCAAAIIIIAAAggggAACCCCAAAIIIIAAAggggAACCCCAAAIIIIAAAggggAACCCCAAAIIIIAAAggggAACCCCAAAIIIIAAAggggAACCCCAAAIIIIAAAggggAACCCCAAAIIIIAAAggggAACCCCAAAIIIIAAAggggAACCCCAAAIIIIAAAggggAACCCCAAAIIIIAAAggggAACCCCAAAIIIIAAAggggAACCCCAAAIIIIAAAggggAACCCCAAAIIIIAAAggggAACCCCAAAIIIIAAAggggAACCCCAAAIIIIAAAggggAACCCCAAAIIIIAAAggggAACCCCAAAIIIIAAAggggAACCCCAAAIIIIAAAggggAACCCCAAAIIIIAAAggggAACCCCAAAIIIIAAAggggAACCCCAAAIIIIAAAggggAACCCCAAAIIIIAAAggggAACCCCAAAIIIIAAAggggAACCCCAAAIIIIAAAggggAACCCCAAAIIIIAAAggggAACCCCAAAIIIIAAAggggAACCCCAAAIIIIAAAggggAACCCCAAAIIIIAAAggggAACCCCAAAIIIIAAAggggAACCCCAAAIIIIAAAggggAACCCCAAAIIIIAAAggggAACCCCAAAIIIIAAAggggAACCCCAAAIIIIAAAggggAACCCCAAAIIIIAAAggggAACCCCAAAIIIIAAAggggAACCCCAAAIIIIAAAggggAACCCCAAAIIIIAAAggggAACCCCAAAIIIIAAAggggAACCCCAAAIIIIAAAggggAACCCCAAAIIIIAAAggggAACCCCAAAIIIIAAAggggAACCCCAAAIIIIAAAggggAACCCCAAAIIIIAAAggggAACCCCAAAIIIIAAAggggAACCCCAAAIIIIAAAggggAACCCCAAAIIIIAAAggggAACCCCAAAIIIIAAAggggAACCCCAAAIIIIAAAggggAACCCCAAAIIIIAAAggggAACCCCAAAIIIIAAAggggAACCCCAAAIIIIAAAggggAACCCCAAAIIIIAAAggggAACCCCAAAIIIIAAAggggAACCCCAAAIIIIAAAggggAACCCCAAAIIIIAAAggggAACCCCAAAIIIIAAAggggAACCCCAAAIIIIAAAggggAACCCCAAAIIIIAAAggggAACCCCAAAIIIIAAAggggAACCCCAAAIIIIAAAggggAACCCCAAAIIIIAAAggggAACCCCAAAIIIIAAAggggAACCCCAAAIIIIAAAggggAACCCCAAAIIIIAAAggggAACCCCAAAIIIIAAAggggAACCCCAAAIIIIAAAggggAACCCCAAAIIIIAAAggggAACCCCAAAIIIIAAAggggAACCCCAAAIIIIAAAggggAACCCCAAAIIIIAAAggggAACCCCAAAIIIIAAAggggAACCCCAAAIIIIAAAggggAACCCCAAAIIIIAAAggggAACCCCAAAIIIIAAAggggAACCCCAAAIIIIAAAggggAACCCCAAAIIIIAAAggggAACCCCAAAIIIIAAAggggAACCCCAAAIIIIAAAggggAACCCCAAAIIIIAAAggggAACCCCAAAIIIIAAAggggAACCCCAAAIIIIAAAggggAACCCCAAAIIIIAAAggggAACCCCAAAIIIIAAAggggAACCCCAAAIIIIAAAggggAACCCCAAAIIIIAAAggggAACCCCAAAIIIIAAAggggAACCCCAAAIIIIAAAggggAACCCCAAAIIIIAAAggggAACCCCAAAIIIIAAAggggAACCCCAAAIIIIAAAggggAACCCCAAAIIIIAAAggggAACCCCAAAIIIIAAAggggAACCCCAAAIIIIAAAggggAACCCCAAAIIIIAAAggggAACCCCAAAIIIIAAAggggAACCCCAAAIIIIAAAggggAACCCCAAAIIIIAAAggggAACCCCAAAIIIIAAAggggAACCCCAAAIIIIAAAggggAACCCCAAAIIIIAAAggggAACCCCAAAIIIIAAAggggAACCCCAAAIIIIAAAggggAACCCCAAAIIIIAAAggggAACCCCAAAIIIIAAAggggAACCCCAAAIIIIAAAggggAACCCCAAAIIIIAAAggggAACCCCAAAIIIIAAAggggAACCCCAAAIIIIAAAggggAACCCCAAAIIIIAAAggggAACCCCAAAIIIIAAAggggAACCCCAAAIIIIAAAggggAACCCCAAAIIIIAAAggggAACCCCAAAIIIIAAAggggAACCCCAAAIIIIAAAggggAACCCCAAAIIIIAAAggggAACCCCAAAIIIIAAAggggAACCCCAAAIIIIAAAggggAACCCCAAAIIIIAAAggggAACCCCAAAIIIIAAAggggAACCCCAAAIIIIAAAggggAACCCCAAAIIIIAAAggggAACCCCAAAIIIIAAAggggAACCCCAAAIIIIAAAggggAACCCCAAAIIIIAAAggggAACCCCAAAIIIIAAAggggAACCCCAAAIIIIAAAggggAACCCCAAAIIIIAAAggggAACCCCAAAIIIIAAAggggAACCCCAAAIIIIAAAggggAACCCCAAAIIIIAAAggggAACCCCAAAIIIIAAAggggAACCCCAAAIIIIAAAggggAACCCCAAAIIIIAAAggggAACCCCAAAIIIIAAAggggAACCCCAAAIIIIAAAggggAACCCCAAAIIIIAAAggggAACCCCAAAIIIIAAAggggAACCCCAAAIIIIAAAggggAACCCCAAAIIIIAAAggggAACCCCAAAIIIIAAAggggAACCCCAAAIIIIAAAggggAACCCCAAAIIIIAAAggggAACCCCAAAIIIIAAAggggAACCCCAAAIIIIAAAggggAACCCCAAAIIIIAAAggggAACCCCAAAIIIIAAAggggAACCCCAAAIIIIAAAggggAACCCCAAAIIIIAAAggggAACCCCAAAIIIIAAAggggAACngIZz2DEQgABBEosUK39D1maPq7/w3fcu0rzlN5RWqLEgkA5CnxMmfqEUjiH11j6/7LzNpzD85VYEEAAgYoQoAJSEYeRQiAQlcCGKu2nlT6z9P/w86eUhikNUuptWagP/630L6W/LU1/X/r/C/p/sRILAoUSWEeBP6f0eaVNlDZS2kBpuFJf526X1gkVkleU/qH0nFI4h5f9v0A/syCAAAKpEKACkorDRCYRiFpgpEq/tdJOSrsqfVKpEEu4w/xbpfuXpj/p/6wSCwL5CgzWhl9TCuduSF9QKsQSnuw9pbTs3H1EP79XiB0REwEEEEAAAQQQqFSB/1LBzlEKTyVCJaAUqV37/bnSdkrcrBECS78ERmitE5UeVlqkVIpzNzQ3vFlpP6XVlFgQQAABBBBAAAEEehBYS+9NVHpUqRQXbb3tMzR5OVlpXSUWBFYWqNIb4QnHdUqlqnSs6vydqzxduTR/VKQFwYIAAggggAACCIQ+HFcolduFW08XdKFZS7jI3FSJBYGhIjhVKfTL6Ol8Kbf3/qx8fl0pVJhYEEAAAQQQQACB6ATCRXy4Mxvar5fbhVpf+elUnkNFJHQkZolPIPTtqFd6Vamvc6UcPw9NG8PTxgFKLAgggAACCCCAQMULbKAShvbpYVSfcrw4yyVP4anNJUp1SiyVLxD6U4SKx2ylXM6Tcl33JZUjPBFhQQABBBBAAAEEKlIg3G0NF2+hg2y5XpDlm6+3VKZwR5k29kKo0OVrKlcYsjnfc6Sct3tA5QrDWrMggAACCCCAAAIVI7C9SvKsUjlfhHnk7T6VsVDDBCs0SwkEQnOrnyiFZnce50i5xghP81qVwgSeLAgggAACCCCAQGoFQpOVC5TK9aKrEPkKT0O+ndojRsaXF9hRL15UKsR5Uq4x/6ryhmGwWRBAAAEEEEAAgdQJrKcc/16pXC+0Cp2va1T2vma3Tt1BjSTDoSldGHa50p96rOp3IMyqHppLsiCAAAIIIIAAAqkR2Fc5nau0qgucWN7/nQzCxHQs6REITZBuUIrlHO2tnFfJgSZZ6Tl3ySkCCCCAAAJRCoQ7x2co9XZRE9tnM+Xx+SjPhvQVekNl+Wml2M7R3sr7lDxq03coyTECCCCAAAIIxCBQrUJeqtTbxUysn70rl11jOAlSXMYvKe9vKMV6jvZW7pfk8qkUH1uyjgACCCCAAAIVKBA6m4eJ+Xq7iIn9szCL+p4VeOwroUhfUCHmKMV+jvZW/uDz1Uo42JQBAQQQQAABBCpDIEzG19vFC5+97xM69/IkpLzO+S8rO/M4f/v1+xv6da1VXoeP3CCAAAIIIIBArAKhjfhLSlQ0+jbgSUj5/JaEJx9vct726/e2S05Hls+hIycIIIAAAggggIDZp4XwmhKVkL4NwpOQ7ZVYSiewuXbNk4++z9Vlv8/fK92hYs8IIIAAAggggMCqBb6oj95RWnbRwv+rtggTFjI61qrPpUJ+Eka76lDi/OyfwYWFPBjERgABBBBAAAEEkgqMUYCFSlzc9W0QnhiFJ0csxRNYR7v6uxLnZ/8MfiWrquIdHvaEAAIIIIAAAgjkJzBem8U6i3SuF7YvympkfsxslaPAGlr/j0q5HqNY1/+NrMIIdywIIIAAAggggEAqBI5RLmO9cMu13M/Ias1UHNX0ZnKgsn6vUq7HJtb1n5AVs6Cn93wn5wgggAACCEQr8GOVPNYLuFzL/TtZfSzaM6WwBQ9NiJinpv+/i8/La93CHhKiI4AAAggggAAChRHIKOxlSrlejMe6/u2yqinMoYg6aivnYL9/B9tltX7UZwuFRwABBBBAAIHUC1SrBDcoxVqpyLXcV8mKTr9+p/1pnHv9/t0LwxJ/zo+eSAgggAACCCCAQOkEVteuH1bK9WI81vWnle5QVdSev8M51+/fufmy2qaijj6FQQABBBBAAIHoBYZI4E9KsVYqci33SdGfMckA9tbmSzjf+vX7Fpz2S8bN1ggggAACCCCAQHkKDFe2/qGU68V4jOt3yemI8jyMZZ+r7ZXDMNt8jOdNrmXmPCv705kMIoAAAggggEBSgY0UYLZSrhdKMa4f7kzvnxQ8su03VXnnKsV4vuRT5pMjOz8oLgIIIIAAAghEKrCZys1FYv8uksOd/G0jPU9yLfaG2mCWUj4X4jFuc0GuwKyPAAIIIIAAAgikWWAHZX6hUowXfrmW+S05bZHmg12EvK+jfTynlKttrOtfIytGWyvCickuEEAAAQQQQKC8BPZRdugo3L+L5tdk9anyOnxlk5swwMEflWKtTORa7vtltVrZHD0yggACCCCAAAIIFFngKO0v1wuoWNd/QVYji3x8yn13A5XB+5RiPSdyLffjsvp4uR9U8ocAAggggAACCBRa4HTtINcLqVjXf1pWaxb6gKQkfmhCdJ1SrOdCruV+XlZhJDoWBBBAAAEEEEAAAQmcr5TrBVWs6/9WVoM5a6yVc6bfvzPtslqfcwYBBBBAAAEEEEDgQwHuZudWAbtNdDUf8kX30w9V4lgroLmWe56sNo/uDKHACCCAAAIIIIBAPwRoz5/bRfWVMs30w7XSVqHfUP/Pk/k6+FtX2glAeRBAAAEEEEAAAU+BMKLRn5Ryvcsb6/o/8cRPQSxGTuv/70YYYW7fFBxTsogAAggggAACCJRcgDkd+n+RGSpeJ5T8iBUnA9trN8wd079zo0tWhxfnsLAXBBBAAAEEEECgMgQ2UjGY1ZqLzWVn82b6Ya5SrE+6ci33icvg+B8BBBBAAAEEEECg/wJcdPb/gjs0t9mv/7SpWpPKaP/Pg1BRmZaqo0tmEUAgOoEYOy9Gd5ApcBwCT060AaM/ZqMXZe2TVRkbofvEa6vkn1AX5UHdAlkN25qx0CE1XMosyGR1Nzljc5Re1+uZ7w2zlzZo6m7e0r1KGf2zvfJyt9LqZZSncs3KAmVsF6VHyjWDeeQrNMd7VIlZ4PuHd41WO1QpNMEqq+W1E23E4vdsQ6u2dZS7TyhzIQ2zKstkuiwMQNGVrbIl+iy79Ltpjt57I9NpHZ3V9tLoZntTr1kQQKACBKiAVMBBpAjxCbxwsg1dfaFtl8nYF3W7czP9sd5Mf7I/KYnqBBrhzmmH0t+UQifwP9dk7A/rNtuL+rnUy97KwI1KScpX6jIUa/9vaUfbK/25WDss4H6GKPZDSlsUcB+VFPp+FWZ3pUWlLNTMRhuk8aG/1Gn2eX0vbaELjTAE8MZKSeeueVux/qaa1VP67nuqq8seHdVqz+i98N3FggACKRKgApKig0VW4xXomGiDs4NsKwmM0R/eMfpr+wX9XKyL8bZsRheBXTZD9ybvHHWhnpqUZvmOdntxaXadur2+phyHoVfDzNdpXcId8TuUxqa1AEXO9+Pa345K/y7yfi3bZFVtc23L6irbI5vtrvxuqTysVqR8hHP9QX0vPqAKzwN6SvLPIu2X3SCAQAIBKiAJ8NgUgUIKPNtkA9d8y3bXH/RvaT+7KhXrD3pvxdLfePut7jdel6mxa2vPszd6W7kAnzUp5mkFiFuJIV9QoUIlZHYKCxcq19cqHZDCvJciy6GiGY51uBgvyqKbIJlZjbZ1V9YOVnPOvfUUdkRRdtzHTnRR84LyNr2z06765DQLvwMsCCBQhgJUQMrwoJCluAXUfOFLVVn7phTGK4V+HGW56Mtjsf7Q312lpxIjhtm9maaitTlvFcjkskQpv0w9rSxtpxRmwk7Tcr4yOylNGS5hXtu17/B09OVi5OFfDTZygNlE7eswpfWVynXR15P9Vk9GrnxPN0w2aEnd70C5upIvBFwEqIC4MBIEgWQCoQlDx1w7UHcRT1Gk0F46bcs/9Yf+gqpq+9mIc+3dAmdedZ7uu+MHFng/lRL+IRVkN6Uwf0YaltOVye+nIaNlkMfQHHJbpb8WOi8dk+0L6iB+vPazv1JoHpeeJdt97v9CT23P1lPbolTU0oNDThEojQAVkNK4s1cEugXCyFUjBqsJg9l39canK4DldVVEpg4YYBeuc7a9U8DyhAug25V2LuA+Kin0bSpMuHBcUuaFOkr5+2mZ57FcshdGPAv9Yx4rZIbaJ9vXVPE4Vd9RoRKb6kVlWKwmrdPVbOzM0eenun9Uqo8DmUcgCFAB4TxAoAQC4YnHrHl2uNoIfE+7X78EWSj0Ll9T2ZrqhtllmaaCXfSuoUI8pPT5QhemQuJfqXIcphSappTjso8ydYNS6P/B0rvAYn0cvO7qfbX8P+043v4j22lnKcJe+Ucp2y1DX7brNMrfqWUyyl/ZQpExBAolQAWkULLERWAVAh0N3RfMP9VV4JdWsUolvf1ctsuOHXW+/aZAhQpzRDyiVAlPjwpEtELY/9WrUOktt2UHZehupXIYaKHcbFbOT6hAHqF0+cofeLyeM8mGLKy2MxTraCWNplvRywJhnrmg087eZJq9V9ElpXAIlJkAFZAyOyBkp3IFuufuWKQ/7NnuP+yx3eW9urrGpqh/SCFG6dlQZ82jSiMr9+xxLdkJinaea8RkwTbT5g8rDUsWJpqtC3b82urtQDWhbJFkbTSa7xf0eZX7uNpmuy+yclNcBEomQAWkZPTsOCaBjnrbX3faLlCjx7IYqrJE9q/rC2dibYvdUoD9b6qY4SJ2zQLErrSQBb2DniPWRlo/9GFYN8ftYl39HBX8JO/Ca+S9tTTyXuh783Xv2CmL9+vsYj2xLd1cRynjIrsI5C9ABSR/O7ZEoE+B5yfZaoOru+82H9vnyrGskLGfaybjSZowLHSi9Vy2U7B7lFb3DFqhsQreh6AfbsO1TnhytUk/1mUVs6uFcKhSqEC6LTMbbHsNKzddAevcgqY70EwNKD6+7nzNd8SCAAIFE6ACUjBaAscuoE6c61mn/VpXC1+O3aKH8v85U237FGBIzNBh9kalSm+73gNpzm+FCmAYRSxUAoq9DNEOH1Laotg7Tun+7lS+Q6dz11HMOho1n0fWLtB31ICUuhQq28H5x7XD7PRM8eY3KlRZiItAWQpQASnLw0Km0i7QXm8HqbnVpSpHuNBi6Ukgqxm6s7Z/Ae40TtTuLulpl7z3EYG39E54cvTURz4p3BsDFTpcUO9UuF1UVOQ/qDQ7Kr3rVapnm2zgsHl2oeId6RWzEuNohve7upbYN2mSVYlHlzKVWoAKSKmPAPuvOAFVPk5W5eNMFYzfr76P7iIhHat+IT/re9Wc1ggT2YUJ7Vj6FujQKlsp/avvVROvEQZfuFbpgMSR4gjwVxVzG6U3vYqrJ7Of0JPZ6/XUY3uvmJUcR04vZjO2i5qM/rOSy0nZECi2ABdIxRZnfxUrkA2zmb9lzbqrP7liC1mogmXtJ3Wt3bPAe+6hWcEaPANWcKxwcbW10qsFLGP4exOeTH27gPuopNBtKkyoGL7iVaiZk22Tqiq7X/E+6RUzkjgdmrxwt9Gt9nQk5aWYCBRcgApIwYnZQQwCS5s0XKGyfiOG8haijPoymqonIcc7xlbfWrtG6SDHmJUcKjTD2l5pXoEKeYbifq9AsSst7BwVKDz5+JtXwZZWPh5UvDqvmJHFmacmWXvXttr/RVZuiotAQQTCH2gWBBBIKKD21FcqBJWPBI5q6jBFwxWfmyDEyptqsK3uUYPuXfkDXvcosLnevUmpEKOIhUntqHz0yP6RN+frnb2UqHx8hKakbwzTd9S9HZPtCyXNBTtHoEIEqIBUyIGkGKUV0OP50NzHrZNoaUtTur2rrfXxqoRMdczBYsU6UOmPjjErOdQOKlzoo+E5UeZ4xbugktEcyxbO19A/5rdeMXny4SWpOGq+NnKtog7Y4Jh5QiFQXgJUQMrreJCblAqobfAf1OU8PAFZktIilE22VQlpbG+wMOGa1/KOAu2q9JxXwAqPs7fKF0ZI8ljGKMgVSvyt6VtTN9g1LK7Z3X2v2r81Xm20DdXn4yGtTbOr/pH1ttajeqT6dQ3Ly3d8b0p8hkA/Bfij0E8oVkOgL4G6ZrtdbYQnaL1wIcGSTOAEVUJOShZiha3f0KuxSjNXeJcXqxL4jj44fVUf9vP9L2q9MOv9av1cP/bVThDAFV4IsybZOkuy3ZWZWq+YscbRF/pflrxnexVg8tRYSSk3AtyV4hxAwFNAHRSnq/pximfMiGP9RJWQwx3LHyof45TmOsas5FBhKOPGPAu4kba7Q2mNPLePbbOfqMBuTQ9fP8nW6Kq2exTzU7FBFqC8MzNVNm69n/K9UQBbQkYswChYER98il44gdCZOvRnKNweooncmcnYgbXNdrNjib+qWGEo0sGOMSs1VHiaF57q/TKHAoY77o8qbZDDNjGvOl2F/6aSy5PTpSPy3a54O8eM6lT2NzLVtk3tefZ3p3iEQQCBpQJUQDgVECiAgK4kMh0N9guFPqwA4WMLuUBN23bW06VwUeu17KlAYcSnGq+AFRwndIwO/UL60zdhiNZ7WOlzSix9C4SnRPsqufQryGouollv2bXZbPfAC33vnTV6E5iv7/GdRrXY73pbic8QQCA/AfqA5OfGVgj0KqCafXbWfJuoP2D9uWjrNRYf2iB18L+jbYpt7mgR7hAfoeRy19kxX+UYaoAydYPSVn1kbpA+D65UPvqAWvrx7/V/GCHMpfIRYoaJUKl8BIlki76/F+umx35UPpI5sjUCvQlQAelNh88QSCDwxUttcdX87iE1H0sQhk0loFrC0EyX3TWrwdZ3BLlSsUI/B5a+BUJztXC3frNVrFqt969S2nYVn/P2igLP6uXuSm5Dd6u/VJN+USavuBte5SGQ1bDqR+qJ6715bMsmCCDQTwFV9FkQQKCQAm3H2tqZAfaI9vGZQu4nktj/rK6xrUaca685lneqYuXb2doxG6kI1a5cbq30r+VyG/6OXKp05HLv8eOqBdr00deUZq56ldw+aau376iv1MW5bcXaPQnoZG6sbbGWnj7jPQQQ8BPgCYifJZEQ6FFg1IU2pyvTPQTsyz2uwJu5CGy8ZInd8dox9vFcNupj3TBYQHgawtK3QJhPYobSusut+mP9TOVjOZBefnQfDrq90fZW5cNr3pZesl75H8nxDCoflX+cKWF5CPAEpDyOA7mIQEDj8v+nhsYMT0LWiqC4hS1ixn4zf4ntvsk0e89pR6Gfw21KYcJClr4FntAqOyodqsTFb99eYY35SjspuXVqntlg21eFuT4ytnrYAUv+AroYunJkix2m/+kXlj8jWyLQbwGegPSbihURSCYwcpr9VU9CdlMUt3bfyXKU4q2ztuPgars8jPrjVIrFinOgUriwZulbYEutEvo2Tet7VdaQwCKlMNqVX+Wj0TbVyX8zlQ+X8+u2kcPsCCofLpYEQaBfAl5/vPu1M1ZCIHYBzaT7uG6vHaQ/dOGClyWZwDc65tn5yUKssPW/9SpMVMiY/yuwrPLFpvqEvyGr5Pngg3BHfaLSfR+8k/CHVxttw6qu7njDEoaKfnMdnIcXDdN3cpPfaGTRowKAQD8E+OPRDyRWQcBTQEM73ql4E5S6PONGGuvY9no72bHs7m30HfNGqHQKhD5Gv/TKuppyrrPk/WZXI7xixhpHN4Ke6XzP9t2gyRbGakC5ESiVABWQUsmz36gF1NHxarU0ro8awavwGTtTlZAjvMIpThilKDSVe9MxJqHiFPhfFbvZq+hzJtkQ9SO7R/E+5RUz2jgZe0nt4nZZ76c2N1oDCo5ACQV0A4AFAQRKJaCx+8/Rvk8o1f4raL+d+jL7uip2NzmW6SuKdb/SxxxjEioegatU1G8phSZYiZdnm2zgsHndc7GMTRyMAK/rqGxT12rPQYEAAqURoAJSGnf2ikC3gK5MMh0N9jO9OBySxAILNIzmLrXN3SONJQ62NMAe+v9mpRqvgMSJQiDMCL+fksss52GwhVlv2bXMcu5y7ryjSU13qD3f/ugSjSAIIJCXAE2w8mJjIwR8BHQHIFvbrg6q2e6LXJ+g8UYZJMfb2xrsc44EYfbvCUoud7Ed80Wo8hX4vbI2Xsml8hGK2fGWNVP5CBKJl0WZrB1I5SOxIwEQSCxABSQxIQEQSCaQud46u6rsYEV5NFkktlYtYagqdXfOarD1HTWmK9b/OMYjVOUK/EVFCyOphTk/XBZNNPhDVX8nuwSLO0hXNmOH1rbavXEzUHoEykOACkh5HAdyEbmAhuddsHA1C819noqcwqP4tRpebMar9SvM1p007k8UYGrSIGxf0QIzVbpQ+XDr1NzWaEep8vGDilYrUuHUPHPKqGa7rki7YzcIINCHgG4WsiCAQLkIzGy0Os1sHCZ4W69c8pTWfOhpyBMDF9mY4RdZmN/DYwnfl79QOswjGDEqSiAM37y1klunZvUN20fn8A2KWV1RUqUoTMZOr2u200qxa/aJAAI9C1AB6dmFdxEomcDMybZJVVV3c6zhJctE5ez4gfmdNm6TafaeU5EGKM6tSmGYXhYEgkBobrWTktss521TbAd1lL5bMVdTYkkgoErcpZp76TsJQrApAggUQIAmWAVAJSQCSQRGn2/Pd2VsT8XwunOfJDtp33bM4Cq7Iowi5FSQMIP9AUq/dYpHmHQLhPMhjHblVvmYWW+bqfIRhpOm8pH83LitbpgdmzwMERBAwFvA64+yd76Ih0DUAuoT8rhlbF8haK4slkQCGRvfMdemJYqx4sbhjvdeSn9b8W1eRSagrkZ2qJJbp+ZXJtlG+qMc4g2LzNK9uGre8dCiYXZQpslvNDL3TBIQgYgFqIBEfPApenkLqM3y/eo4OUG5DBc6LEkEMnaM2tSfkiTEStvO0eudlV5Z6X1exiNwvIr6a6/izppk61RX21268TDCK2ascVT5eEZtLvfdoMkWxmpAuREodwEqIOV+hMhf1AKaVO8aATAEp8NZoLbgP1Yl5EiHUMtCtOmHMOrRm8ve4P9oBH6kkrZ4lXbOJBuiobjDk49PecWMNY5+z1+sGWA7b9Bi82I1oNwIpEGACkgajhJ5jFqgrsUuFMDZUSP4FF5zkNnFqoSENvtey7MKFCoh73oFJE7ZC1yqHLoNjftskw1cWK3RrjK2RdmXvPwz+Lp6e+02/BybXf5ZJYcIxC3AKFhxH39KnxIBXThnOhrtMs0JcERKslzO2Vygpm276OnSI46Z3F2xblGqcYxJqPITuE1Z2l/JZZbz7IFWPavOrtXvdxjYgCWZwNu6oNmhtsX+lCwMWyOAQDEEeAJSDGX2gUBCAf1hzda22Xd0oXJTwlBsbjZIFbnb2xrsc44YdyrWBCUdIpYKFXhY5TpIyaXyEYw66qyZykeQSLws0m/eAVQ+EjsSAIGiCVABKRo1O0IgmUDmeuvMZuwQRfG8c58sUyndWhd9Q1Wpu3NWg63vWITpivVdx3iEKh+BZ5SVMCqdW6dmPdEM/UgmlU8RU5uTrmzWDqlrtRmpLQEZRyBCASogER50ipxeAQ3Pu2Dhat1zhDyV3lKUTc5rNbzYjFfrbV3HHIW+Ouc5xiNU6QVeUhZ2UZrrlZW2RjtKF82nesWLOY46djWOarXrYzag7AikUUA3AVkQQCBtAq8cZ7XVNfaY8r1+2vJehvl9cuBAG7PO2faOU97C9+rPlSY4xSNM6QRe1663UXrOKwsaBGEfPYG7QfGqvWJGGydrp+nJx+nRlp+CI5BiASogKT54ZD1ugZmNtnFV1h6Vgucd/FhRH5jfaeM2mWaaPsBlGaAooVN6GCGLJZ0CoUK6g9IfvbLfNsV20Czndyses5wnRNWTj4trW+3ohGHYHAEESiRAE6wSwbNbBJIKqDnWP1UB2VNx/p00FtvbmMFVdkW2SYN4+iyLFSaMbBSeUrGkT2CRshyOn1vlY2a9babKRxhEgspH8vPhlpEddlzyMERAAIFSCXj9sS1V/tkvAlELjGy1J9ScY28heN25j9czY+M75to0R4AFihWOzV8dYxKq8ALqGmSHKt3ntatXJtlGVZnueMO8YsYaR08+HtTTyvFhUI5YDSg3ApUgQAWkEo4iZYhaYFSLPaBJzA4TQrhwYkkikLFjNDrR/yQJsdK2c/R6Z6WXV3qfl+UrMEVZu84re7NPsOHV1d3NrmgqmRz16fcytp9jU8nkOSICAgjkJUAFJC82NkKgvATqmu1aVUImlVeu0pkbjU50hjoKH+mY+3bFGqv0mmNMQhVG4IcK2+oVes4kG9K52O5RvE28YsYaRx1WXxgwwHbZoMXmxWpAuRGoJAEqIJV0NClL1AKqhFyk5lhnRo3gU3i18rCLO+q7Z7z2iWj2vALRX8dLszBxLlHYJq/QzzbZwIXVdqNuDGzhFTPiOK93Vdm44efY7IgNKDoCFSWgmwosCCBQKQK6cM7o7v2lKo/nHfxK4cmtHFlbqC/IXTTSzv/ltmGva++kT8Os6QN7XYsPiy1wq3a4v5JLv4LsgVY9q86u1e9j6MjOkkzgbQ0NsX3dVPt/ycKwNQIIlJMAT0DK6WiQFwQSCuiCOVvbrknOMrrzypJMIGOry/H29imud7DvV6YmKNFfJ9nR8dz6IQUbr+RT+Qg3AUbZT6l8uByiRZa1A6h8uFgSBIGyEqACUlaHg8wgkFwgjA6ji58wio/nnfvkGUtnhCEaOvXO2cfZBo7Zv0ax6h3jESp/gWe06b5KC/MPseKWsxrsR7po/vaK7/IqD4HwPXawJhqckce2bIIAAmUuoBumLAggUIkCoQOs2qA/rLJ9rhLLV8wy6YvyheqsbbVuq73quN+zFetEx3iEyk3gRa2+lZJbv4K2Bjta58pFuWWDtVchMLmuxXVY7FXshrcRQKAUAjwBKYU6+0SgCAJrT7O3O5fY7uoE+1IRdlfRu9Cd2I2WZOzeF062oY4FPVmxfuEYj1D9F3hdq+6m5Fb5aG/U3BRmF/Q/C6y5KgGNRPd9Kh+r0uF9BCpDQN+XLAggUMkCYRI0zUPwmMrIPAQJD3SYBO3dLtvNcR6CamXpeqXQDIilOAJvazc7KP3Ja3dtU2wHNdW7W/GY5Twhqi5KflrbYsckDMPmCCBQ5gI8ASnzA0T2EEgq8Mlp9kImY3sozjtJY8W+vTql7zC4WqMbaZQjJ4vQ8flgpUed4hGmd4FF+jiMTOVW+dDElV9U5SOMokXlo3f7/nx6y8h25jPqDxTrIJB2ASogaT+C5B+BfgjUNtuTaka0j1Z9rx+rs0rvAvtoiNVpva+S06cLtHaoID6V01asnKtAGHnsECW3Ts3h6aKaC92hmGvkmhnWX1EgPF2c36lmbBpEY8VPeIUAApUoQAWkEo8qZUKgB4FRLfaA+oMcpo8YArYHn1zeUmXu6LZ6OzWXbfpY9y19Pk7p5T7W4+P8BRq0aWju5rK8cpzVVtd0V2Zo2phc9MkBq9nejk0bk+eICAggUFABKiAF5SU4AuUloNnSw+Rox5VXrtKZGzVr+1F7g2tzkQ5JjFV6LZ0iZZ3r05Q7t6dWYYQ5VT7u1HC7G5R1qVOQOfX5eKEma3usczZNRFNwuMgiAm4C+t1nQQCB2AQ0W/oZqoh8L7ZyF6C8Ya6C8Xq6dINj7C0V6wGljzvGjDnUxSr80V4AMxttUFXW7lG8bb1iRhyno3qJbT3iAkbqi/gcoOiRCvAEJNIDT7HjFtAoM6eqORZDhiY/Dap1F+dqDcG6U/JQH0R4Qj/RX+cDjkQ/3KKt3Z74hcEHdLyvUkwqH4kOS/fGb6vyvjuVj+SQREAgjQJUQNJ41MgzAg4CtW3WoIspzzv3DrlKZYiBaopzY/sU28Ix979RrAlK9NfJH/VBbTpeyaVTsy6WMx11drE6S++ff5bYslsgawvluKeeHP4ZEQQQiFOACkicx51SI2BhtJm5w7qHgL0fjsQCQ1RVuGfmZNskcaQPA/xKP07+8CU/5SDwtNbdT8lt1Lf2ejtD8Y7MIQ+s2rNAp258HFLbav/X88e8iwACMQjoe4AFAQRiFggdahdW2UNqkuV5Bz9KUn2hvlAzwLYefo7fDNuC/InSyVGC5lfof2qzrZTcOvOrid0xesp1YX7ZYavlBDSVjk1UE9CfLfcePyKAQIQCVEAiPOgUGYGVBWafYMM7l3RPhud5B3/l3cTy+mnNdrfdBi02z6nA4Xv6MqUjnOJVcphQ6dha6XmvQqryMV6Vj6sVjxYDCVF1Iv+PKh9nJgzD5gggUAECVEAq4CBSBAQ8BMKkatVVqoRkbIRHvJhjhEnV3u2y3RznNQgzr1+nFJoVsfQs8Lbe3l7p//X8ce7vtjXYGP2RvEtbMst57nwrbpG1i+pa7dgV3+QVAgjEKsAdnViPPOVGYCWBT06zF9TjeRe97XXnfqU9xPNS7Ux2GFytOVc0apJTqUNH6kOUHnWKV2lh9NDJDlByq3x0NNoXVfm4VTGpfCQ9W7J2be2arnPmJM0R2yOAQIkFqICU+ACwewTKSWB0qz2drfLtvFtO5StyXvaZVes61PEC5X8PpaeKXI5y310YKSxUzmZ4ZVRzfWyczdodisdcLMlRH5jfZYdlmhjRLTklERCoHAEqIJVzLCkJAi4Co6bag7rz6zZ8qUumUhpET0KOUjOe7ztm/y3FGqf0smPMtIdqUAGu9yrEK8dZrSYaDJWZdb1iRhznyQGLbG/HpogRU1J0BCpLgApIZR1PSoOAi4A6it6ii2e3CdxcMpXSIKrMnd7e4Nr8pEMUY5XcRnlKKW3IdpPStPCDx/LCyTa0usbuVKz1PeJFHuOfNVnbY/hF9u/IHSg+Agj0IKC/jSwIIIBAzwIaAeiHGgHoBz1/yrs5CIS5D76uit1NOWzT16pf0gphwsJYmwldorIf1RdSfz9Xs6tBevJxr9bfpr/bsN4qBTp0d3OrkS32r1WuwQcIIBC1AE9Aoj78FB6B3gXqmu00jYp1fu9r8Wk/BKo1k/avNJldeHLhtTyuQPsqhQ7YsS2hc7jbiEphsACNXDZdMal8JDyTVNF+S+f67lQ+EkKyOQIVLkAFpMIPMMVDIKlA7VBrzGT82tgnzU+Ktx+oytwNHZPtC45luF+xJiiFjtixLA+poG59lHSxnOkYZZfowpkhjpOfQQt0ju85qsX+nDwUERBAoJIFqIBU8tGlbAg4CITRa+YO9R1lyCFbaQ0xRKOM3a0nIZ92LMA1ilXvGK+cQz2jzIWnPgu9Mqnhds9SM0MmeUwOGpoZHlLbbI8kD0UEBBCodAF9X7AggAACfQvMmWRDFlbbg1rz832vzRp9CMzUvNpb1U21mX2sl8vH52jlE3LZIGXrvqj8bqU02yvfSwcHoIlhctCsKnHf1kSDP08eiggIIBCDAE9AYjjKlBEBB4G1p9nbVZ22q0L9wyFc7CFGZ7vsrpePtjUdIU5SrMsd45VTqNeVmTD8sFvlo6O++6leazkVMrV5ydopVD5Se/TIOAIlEeAJSEnY2SkC6RV4tdE2XNJlj6mt94j0lqJMcp6131cPsJ1GnGvvOuVogOLcohQu1itleUcF2V7pT14Faqu3PdSv6WbFq/GKGXGcC+taGLI74uNP0RHIS4AnIHmxsREC8Qqs22wvdlXZzhKYF6+CU8kz9pXOTrs22+R2IbxYOTtA6TGnHJY6TBjhK5THr/Ixxb6iyse1iknlI/nR/VXtMJucPAwREEAgNgEqILEdccqLgIPA6GZ7RsMu7at2326dgR2ylc4Qmqyt/S27PIzG5FSABYqzt9LfnOKVKkwY2etQpfu8MjB7sv1Xpqt7osGPecWMNk7GfjO/0yaEQSqiNaDgCCCQtwAVkLzp2BCBuAVGt9hDEjhIqTNuieSl1xwUh3Q0mGd/hDnK1VilV5LnrmQRpmjP13ntvX2Kje6ssrsUby2vmLHGUWX5iQHv2T6bTLP3YjWg3AggkEyACkgyP7ZGIGoBdTy9LZv1mxAuakyzSRqe90RHg3bF2k3pTceYxQr1I+3IrUI2a5Kto/v0MxRzdLEKUMH7eb6mxvYYfpH9u4LLSNEQQKDAAl6P/AucTcIjgEA5C2g409OUv6ZyzmNK8laI4Uy/rLL/RiktzY4uU14neh2v10+yNRYt1vDRWdcJIL2yl7Y47Zlq26r2PHs5bRknvwggUF4CPAEpr+NBbhBIpYBGwfmhmmW43bFOJYJPpjPqCXKJmmPt5xOuO8of9G9oKrfEMWahQt2uwMd4BX+2yQYuWmQ3UPlILqq7lW9pEs3dqXwktyQCAgiYpsJiQQABBBwE6oaZa5t9hyylNUS1KnPTNUP3No4FuFOxJigpdNkuv1POxiu5VJQ0sljVmm/ZdMULI7axJBNYoDNnj1FT7alkYdgaAQQQeF+ACghnAgIIuAiE0XDmDfMdtcglY+kMMkgXfLer4/QWjtkPF+P/4xjPM9RfFGx3pfleQTvmWYv6Jx3oFS/iOJ0atvjg2lZ7NGIDio4AAs4C9AFxBiUcArEL0Obe9Qx4ravLth59vj3vGPU8xQpPq8plmamMbKUU/ndZ1ITtDD3q+Z5LsLiDhCdmR6qJ5S/iZqD0CCDgLUAFxFuUeAggYGHUoa5qe0QUn4YjmYC+pF+oGWBbDz/HZieL9MHW4Xv/cqVvffBO6X54Q7veWuk5ryy0N6oPSdYu9IoXeZwTVfk4N3IDio8AAgUQoAJSAFRCIoCA2ezjbIOuGntMt1BH4pFY4GlNCb7dBi1us88PUI5uU9o1cc7yDxCaW+2kFPp+uCwaje0bChSamtG8OKloxi6oa7ZJScOwPQIIINCTAF/SPanwHgIIJBYYcYG91JmxXTSq09zEwQiw2WpmN7/UZKs7USxWnP2VfusUL9cwy/bvVvlom2w7KhPhyQ5/13I9Giuvn7Vraoda/cpv8xoBBBDwEuCL2kuSOAgg8BGB0c32jL5k9lWTmIUf+ZA3chLQk6TtB86zX2ebrCanDVe9cngCsbfS31e9SkE+UVHsSKV7vKLPbLQvZarsFsVTPY0locD989a0CWFQiYRx2BwBBBBYpQAVkFXS8AECCHgIjGy2hxUnLfNQeBS5kDH2mjXPfqYreK/ms6EPxlgltw7g/Sj88Vrnyn6s169VZk62Tao0YphW/ni/NmClVQropHp8wCLb97NNphZ/LAgggEDhBKiAFM6WyAggsFSgrtVuy2T9JpiLGVaVj2/NarAfORq0KdY4pWI0lTtT+2n2ynvbJBtVVWUzFG+4V8yI4zxfVWN7Dr/I/h2xAUVHAIEiCXjdRStSdtkNAgikWaCt3k7VnAKeF89p5kiUd1VEjh/VYlMTBVlx46/o5W+UBq/4ttur0Dn8m0qhCVbipe1YWzszoHuktc8kDkaA9ky1bcUs55wICCBQLAEqIMWSZj8IINAt0NZgzfriaYAjsYDm2bPDVQm5InGkDwPsqR9vUvLqZ7Is8h36YV8ll1nOOyba4OzH9OQja19btgP+z1tgTlWnbTtymv017whsiAACCOQoQBOsHMFYHQEEkgloXoEpqoC49QFIlptUb61+13apmmPt5liK0JficCWXpxRL8/UH/T9eyaXy8eREG5AdZDdS+Viqm+y/Bdp8byofyRDZGgEEchegApK7GVsggEACAVU+sh3zu0dBujdBGDaVgGoJAzRU0Q2a/2IrR5CrFOsHTvGeVZzQv+Rdj3gqb6Z2sP1MXfBLOX+JR1FKHkO/h4u7uuwA3RB4rOSZIQMIIBCdgL6DWBBAAIHiC3Q3oxls92vPXy3+3ituj/OyVbb9qKn2lGPJQmfxJE3lQuf2UDF6xStPNN/zklTdNWNHaKLBy90iEggBBBDIQYAnIDlgsSoCCPgJ1F5q89XxdS9dChV7Hgq/QpRPpGGZLrtTzbHWd8zSFMUKT0PyWeZoo52V3Cofespzmu6YJakQ5VOOitwmm7ETqXxU5KGlUAikRoAnIKk5VGQUgcoUaJ9iozXlWWgGMroyS1jUUv2zJmtbr9tqrzrtdYDihH4hu+QQL0xwOFbJbZZ1jZ72HY2ednEOeWDVVQucrWZXJ6/6Yz5BAAEECi9ABaTwxuwBAQT6EJg92f6rs9r+T09D1uxjVT7uQ0D9JJ4YuMjGOM7nsIZ2+aDSF/rYdfh4sdLeSneHFx5LR4PtozLdoFjVHvFijqEnH9P15OOb+sMvUhYEEECgdAI0wSqdPXtGAIGlAiPOt7/o4sits3LMsLq43HLxQLv1+Um2mpPDO4oTOn0/10e8cFE7Ucmt8tE2xXZQ0GsVk8pHH/h9fazz4s66oTaBykdfUnyOAALFEKACUgxl9oEAAn0KqAP179Ux9hta0WW41j53WNkrjBlcZb/KHuh24f6GuMJwv7N6YTtRn13Ry+c5faTKx+bq1xLmJPGqSOW0/0paWZWOP2iW84MyTfxuVdJxpSwIpFmACkiajx55R6DCBNQ85HZdLB2uYtFEJOmxzdi+s+psWtIwy23/kn4OfUHmLvfesh/P1g/nLXuR9P+ZjbaxKh9hmOZhSWOxvT3bqaeLI871GQoZTwQQQMBDgAqIhyIxEEDATaC2xa5Sh+NT3QJGHEi1uKPD6FGOBM8oVpjRfOFyMa/Wz99d7nWiH185zmqrsprl3GzdRIHYOAi0ZbI2bnSzvQkHAgggUE4CutnIggACCJSfQEe9TVW/kMbyy1n6cqQKXUNts7U65nwvxbpRKTylCBWS0Pk88fLCyTZ09ffsYQXaPHEwAszRH/htVKH/GxQIIIBAuQlQASm3I0J+EECgW0B37zOa1+Jy/f8tSBILdKky941RzXZd4kgfBthHP96nFIbdTbyo2dUgPfkI8bZOHIwA8zW09di68/2GQoYUAQQQ8BSgCZanJrEQQMBNQHdHsh3z7dvqDXKPW9B4A1WpKc5VeqoU+nB4LbcokEvlI3SWr+qy0JSLykfCo6Pfm8X6w34AlY+EkGyOAAIFFaACUlBegiOAQBKBL15qizMLbH+NjuU2qV2S/KR824F6CnJTW4N9tZzKEZ50ddTaZTrGoSkXSzKBbJeGQh7Z4jcUcrLssDUCCCDQswAVkJ5deBcBBMpEoPZSm5+p0uR2Wft7mWQpzdkYrDvkt3Ucb/9RLoWYVW/nqPIxoVzyk+Z8qDJ3wqgWv6GQ02xB3hFAoLwFqICU9/EhdwggIIHa8+wN3dodqx9fASSxwCeynTZDzbE+mThSwgCa5fwUPZU5PmEYNg8CWfuJKh9TwUAAAQTSIKCbYSwIIIBAOgRmNdpnu7L2f8rtWunIcVnn8tmujG1bqiFaVfk4VHfsfykh/g4lPE1UiZuuOXS+KUiRsiCAAALlL8ATkPI/RuQQAQSWCoxstmdVARmnl++Ckljgs9VZu2v2CfaxxJFyDNDeaHvqSvkX2ozKR452H1k9Y3fUDbUJVD4+IsMbCCBQxgJUQMr44JA1BBD4qMDoVvtDNmvj9cmSj37KO7kIqBLw5c4ldsuzTTYwl+2SrKunWNtpiNgwHHBNkjhsK4Gs/b662sZnmvhd4HxAAIF0CVABSdfxIrcIICCBUa12h4aVnaAfaXKS/IzYadhczbfSZAX/e6C5PjbVKE0367nH6smzHX2EZ7uqbPcR5/I0MPozAQAEUihQ8D84KTQhywggkAKB2labrurHKSnIavlnMWP/3THPzi9kRl9ttA3V5OteHbM1C7mfSGK3qbq4W6n670RiTDERQKCAAlRACohLaAQQKKxAXaudpSch5xV2L9FEPzaMSlWI0s6aZOssydrdelw1shDxI4v5RqZas5xPtZmRlZviIoBABQlQAamgg0lREIhRoNPsepVbLXtYkgqob82Baorl3jcjW23bKG+bJM0f26vXftYeH7mG/QMLBBBAIM0CVEDSfPTIOwKRC6hPwcZVGbtNDHyXJTwX9HTixQEDbVwhOjTXtthNyt6khFlkcwloyN1xs+bahWAggAACaRbgj3aajx55RyBigVeOs9qqrM0QwfCIGbyK/nroUzD8HJvtFXDlOHUtumjOaNZzlsQCqoQc1V5vP0gciAAIIIBAiQQYg71E8OwWAQTyF3jhZBu6+nv2sCJsnn8Utlwq8I7+EGyvpxR/KrSInrJk1M/kZ9rP4YXeVwzx1RyrXoMxFHTwgBgcKSMCCBRfgCcgxTdnjwggkEBAza4GqfJxh0JQ+UjguHTTRZmMHVCMykfYnyo62dp2m6gfb1m6f/5LIKAnIc1t9XZgghBsigACCJREgApISdjZKQII5COQPdCqq7rsam27dT7bs80KAl26gD20ttnuW+HdAr/IXG+dXRr2V7t5rMC7iiF8lSqQ09Uca2wMhaWMCCBQOQJUQCrnWFISBCpaoLv5Tp1dqtvo+1Z0QYtUOF24ThnV3D0jeZH2+OFuNH/Fguxi21vH8q8fvstPeQoMlOMNatr2+Ty3ZzMEEECg6AJUQIpOzg4RQCAfgY5GO0vbHZ7PtmyzkkDGTteTj9aV3i3qy1EX2hyNnbyzdvpyUXdcmTsbogr6PW1T7FOVWTxKhQAClSagJrksCCCAQHkLqInJcbrLO628c5mSRD+x7QAAQABJREFU3GXssrrm7n4YZZFhTVL4n13V9ogys1ZZZCjFmQhDKQ8cYFsVcjSzFPOQdQQQKCMBnoCU0cEgKwgg8FEBPfn4b1U+Snq3/qO5Su07t9UOtWPKKfcjp9lfu7I2Tnl6t5zylca86I7ihksW230vNdiwNOafPCOAQDwCVEDiOdaUFIHUCbQ32k6anftyZZzvquRH73eZ+fYNx4kGByXP0vsRRrfaH3T3/iC9WuIVM9Y4ctx0NbObX2qy1WM1oNwIIFD+AvxRL/9jRA4RiFJAw+1+ybJ2swo/MEoAx0LrovQvS96z3WsvtflOYT+hOH9U+pZTPBvVYndqXosJiqfssiQREOD2A+fZr7NNVpMkDtsigAAChRKgAlIoWeIigEDeAjMn2yaa5fx2Bfh43kHYcJnAzEyVjVvvpzZ32RsJ/x+s7W9V+ozSZUq7KrksmlRvuqofp7gEI8he7fM0+zwLAgggUIYCVEDK8KCQJQRiFtCTj7qqKpshg+ExOziV/Q1d0I+tm2ozneINUJwblL62NF54faPSV5e+TvxfXaudpb4MUxMHIoC6TtnE9gZrggIBBBAoNwEqIOV2RMgPAhELvHCyDdWTj7tEsF7EDF5Fn6+mOHvpgv45p4C6ntU8LGa7rRQvPBG5Tek/Vno/75cjW+wEbXxF3gHYcHmB0zSQQ/3yb/AzAgggUGoBKiClPgLsHwEEugX05GPQ6u/ZHXqxGSTJBFRTWKyJBvdXv4rfJYu0wtbn6tVhK7zz4YvQJyQ8tRr94Vv5/6T8Z2fNt4mqQN2dfxS2XCaggRymtjXa15e95n8EEECg1AJUQEp9BNg/AgjYkxNtQHVXd9OereFILJDVsLZHaqLBexJH+jDAyfpxyocve/xplN4NT6/W7PHTHN/84qW2uGq+HaB2RL/NcVNW/6hAlTr4X6UnIWHiRxYEEECg5AJUQEp+CMgAAnEL6C53ZuQguySb6Z4LIm4Mh9LL8fhRrXalQ6hlIQ7RD2cue9HH//+lz0MlJDTLSryEUbvUgX5v9WP5e+JgBBioJyE3dEy2L0CBAAIIlFqACkipjwD7RyBygY4GO1t3uSdEzuBSfFXmzhzVbM0uwd4Psrv+u1wp9P/o7/IVrXitkssQsLXn2RvZLhureF4d6ftbjkpcb41sld3dXm+frsTCUSYEEEiPQC5/VNJTKnKKAAKpENCF0Im6tD07FZkt80zqycf0umb7Zug/4ZTVLyvOb5Q+lme88BTmMCWX/MxqtM92mT2iaC5NvPIsU2VslrGXFmdtq/VbbFZlFIhSIIBA2gR4ApK2I0Z+EagQAT35OFiVj7MqpDilLUbG7qgbahMcKx//qQKFplT5Vj6CxzeVTg8/eCwjm+3Zpc303vWIF3WMrG2g2T3vffloKnNRnwcUHoESClABKSE+u0YgVoG2Bttdt8WvUPl5CpvwJBDgH6qrbXymyZYkDLVs8zr9ECofay17I8H/p2rbhgTbr7DpqKn2e50x39CbXmVdIX5ML/T7t2n1anbzS022ekzlpqwIIFAeAlRAyuM4kAsEohGYWW9f1kXzr1Vglz4C0cD1XNBnO9V5f8S55vVUYG3t5j6l9XreXV7vnqetvp7Xlj1spGZmt+v8OVwfuTTt6mEX0bwlx+0GzrNfZ5v4XYzmoFNQBMpEgApImRwIsoFADAKzJtl/VmUSN+2Jgao/ZWzT0KrjRjfbm/1ZuR/rDNI6tyqF5leeS/g7c5XSLl5Ba1vsKtU+vu8VL/I4e82aZz+Xp+ojLAgggEBxBKiAFMeZvSAQvUDbJBvVVd09sZxH057YPefoanHn2lZ7xQmiWnGuUdrKKd7KYdTlwK5XchsCVpMs/lgXzS0r74jXuQvI8Zvq5H967luyBQIIIJCfAHc88nNjKwQQyEGg7VhbOzNAIxiZfSaHzVi1Z4H5pmFp6853m6Av/B34mdLhPe/O9d3XFW0bpec8ooa79rMa7IpwAe0RL/YYOhEa9XSJSl3sJwLlR6AIAjwBKQIyu0AgZoGOiTY4M9BukwGVj4Qngi4QF+tL+wDHykfI0VlKxah8hH2toxQ6uI8ML5Iu8sh2zLcjFefepLHYvrtTzdS2eipznAsIIFB4gXDniwUBBBAoiMCTE23AiMF2q75odivIDuIKmlUr/SPUCftyx2Ifq1gXOMbrb6hntOK2SvP6u0Fv671+kq2xaLE9qG7pbk28ettfJX8WKrly3FPN+6jUVfKBpmwIlFiAJyAlPgDsHoFKFQjNY0YOtkupfPgcYc2BcaJz5eO/lbPzfXKXc5RNtcXNSi5DwK5ztr2TqbJdFc+laVfOpamgDfR7O0Dn2k0aKvurFVQsioIAAmUmwBOQMjsgZAeBShHQRIPn6WJmSqWUp6TlyNg5qnyc5JiHHRUrNIUKncNLuYRRt/ZX6vTIxOzjbIOuGntM591Ij3iRx3gjU23b1J5nf4/cgeIjgEABBHgCUgBUQiIQu0BHo32XyofbWXB17VD7rls0sy0V6xalUlc+QpH2Vrow/OCxjLjAXtK8KLuoqdpcj3iRx/hEttPua59ioyN3oPgIIFAAASogBUAlJAIxC3TU2yHZrP1vzAaOZb9/3jA7XLOcdznF3Fhx7lD6uFM8jzDfUZDTPAKFGJoX5Rn9YdtX/RgWesWMOM7obJfd9fLRtmbEBhQdAQQKIEATrAKgEhKBWAU0gs4emUx3235mOU94EujL+fGaRbbj8Ivs3wlDLdu8Vj88prT+sjfK7P965cetT0p7ve2lJyE3KibnYtIDnbXfVw+wnUaca+8mDcX2CCCAQBDgCQjnAQIIuAi0TbGvqPJxrYJxwZdc9PmqGtvTsfIxVFkKfT7WT561gkVoVuQDvaLXtdptOh/DKF8sSQUy9pXOTrs228TvdlJKtkcAgfcFqIBwJiCAQGIBzaL82UyX3alAH0scjADt6vw7VnebX3OiGKQ4tytt7hSvUGHC36PpSmO9dlDbbJcqVpNXvKjjZG2P9nn2C/XtouVE1CcChUfAR4AKiI8jURCIVqBtko3qynbfXV8rWgSnguvK7q1sle2ukYdedgpZrTjhoj7MPp6GJXSMv0FpC6/M1rXYD3XJ7Na0yytfaYyj8/PQ9gb7cRrzTp4RQKC8BKiAlNfxIDcIpEqg43j7hOZfmKFMfzJVGS/PzC5Qx+k9Rk21p5yyF+5UX6K0n1O8YoUZoh3dq7SJ1w41ilijmmNd7xUv5jg6qU5pa7TGmA0oOwIIJBegApLckAgIRCnQMdEGa4ScW3V3+T+iBPAtdKcukA/W7NOPOoYNd6qPcIxXzFDraGd3K63rsdOMRhGbO9QOUaxQWWZJKJDJ2nmqhHwrYRg2RwCBiAXCHTIWBBBAICeBJyfagJGD7DZVPsLs0yzJBLJ68vFtdZr+ebIwK2x9jF5duMI76XzxtLK9ndI8j+zPmWRDFlbbg4r1eY94McfQxcNi/f7vpX4298TsQNkRQCA/AZ6A5OfGVghEKxA6odYOtsuofDidAlk7xbnyMV45m+aUu1KH2UwZuElpNY+MrD3N3q7q7K40/8MjXswx9D0wQPP93Ng+2b4WswNlRwCB/ASogOTnxlYIRCswq97O08XHt6IF8Cx41i5S5eMsx5BjFOsKpUr6bt9B5fmlV5lGTrPXazK2m546zVZMlmQCg3Wm3aq+YDTDTObI1ghEJ1BJf6SiO3gUGIFiC3Q02v9kM3RAdXL/Ve2aNskpVgjzRaVblFyeFoSAZbQcpLxc4JWfdZvtRU0tv4viuTTt8spXSuN8IttpMzrqGYgipcePbCNQEgH6gJSEnZ0ikD6BjgY7VE8+wp1ovjeSH74H5nfauE2m2XvJQ3VH2Ej/Pqbk0mnbKU+FCHOqgobO9S7LzAbbXnfhQh+GSqy0uRjlEOTZroxtO7rZ3sxhG1ZFAIFIBbiQiPTAU2wEchFob7Q91WQltMWvyWU71u1R4MkBi2wHx1nOR2ovofKxQY97q6w3VQe2iUo/8yqWKtb7KGiYeyTMmcKSQEAXFH+oqrEdNYnmuwnCsCkCCEQgQBOsCA4yRUQgiUDbFPuKKh/XKgaVjySQ72/7zxrN9eFY+RiisGEG+hgqH0Ew3DS7WGn/8MJjqW2xW9Ss8DiPWLHHUEXuy52ddm22ie+K2M8Fyo9AXwJUQPoS4nMEIhaYWW+bZbq652MYHDGDV9E79IU7dt1We9UpYJg1/EYlt1nDnfJV6DDus7uParaLNQ/LGYXOeBTxVcHumGuXqjISKossCCCAQI8CVEB6ZOFNBBBon2KjqzJ2hySGoZFMQFdib+mCbPeRLfavZJE+2DpchF+ttNMH78T1w+oq7u1Kn/Mqtuaz+L5iVcrwxV4s+cXJ2AQNWHFmfhuzFQIIxCBABSSGo0wZEchRQMNqfsK6umeNHp3jpqz+UYEFuhe856gW+/NHP8r7nWZteUDeW1fGhkNVjND8bH2v4tS2W6Mqi6E/CEtSgaydrNnSj08ahu0RQKAyBaiAVOZxpVQI5C3QMdEGa1jN2xTg03kHYcNlAp26oD1Ed9cfWfaGw/+nK4bn8L0OWSpZiFrteYaSy+hfmeutc+4wO3hpzJIVqlJ2nMnaOW0NdlillIdyIICAn4D+NrIggAAC7ws8OdEGjBzc3bRlF0wSC2TVef/bzrOcH6Vc/TRxziovwBMq0hilf3sUbc4kG7Kwyh7Sk6vY+td48K0QQxcZi5X2VvPDu1f4gBcIIBC1AE9Aoj78FB6BDwU0ck2VKh9X6R0qHx+y5P2TLrq+51z52EeZcZuML++CleeGWypbtyit5pG9tafZ29UDbFfFet4jXswx1PdpgCZ9vKG9wbaK2YGyI4DAigJUQFb04BUC0Qq0z7PzVPiDogXwLHjWLtLwrmc6htxescJQyKHzOUvPAjvq7cuVXP6uaS6L1zSk7G56ijW7593xbg4CYRS9WzXnymdy2IZVEUCgggVcvqgr2IeiIRCFgNppf1937BuiKGyhC6k5U2rXdO2jEZoB3arkcne/0MUvcfxvaP/neuXhk9PsBd29D08E53nFjDjO2noaMkMDXKwXsQFFRwCBpQK65mBBAIGYBTRc5sRs1i6J2cCx7A/M77Rxm0yz95xibqQ4jyqNcIoXS5jvqqBneRVWk3HusHQ+HCqBSVEz9ldV6rYZ3WxvJg3F9gggkF4BKiDpPXbkHIHEAu31tpc62obJ7JjlPKGm7u4+MXCRjXGc5XwdZSlUPj6VMGsxbq7DYd9W+rlX4dV8aB8FDUP00gwuIaouPB6vqrExaub2bsJQbI4AAikVoAlWSg8c2UYgqcCsRttOMX6tROUjKabZPwdkbU/HyscQZeleJSof+R2bcHMtPNXbL7/NP7qV+vTcks3YcR/9hHdyFVBF7ktdS+zXYdS9XLdlfQQQqAwBKiCVcRwpBQI5CcxstE3VDOJmPf1YPacNWbkngQ59kY5dt9Ve7enDPN4bqG3CnXaGgM0Db7lNwpOK6UrbLPdeoh9HNdvF+p05PVEQNu4WUCVkd426d3kYfQ8SBBCIT4Bf/PiOOSWOXODVRtuwOqu761lbM3KKxMXXbfa3slU2TnMc/CtxsPcDhO/kcNE81ile7GEGCeB2pc29IOqa7TTFmuYVL/I4B3e8Za2RG1B8BKIUoAIS5WGn0LEKzJpk6yzJ2l26+zgyVgPHci/Q3fA9R021pxxjtijWgY7xCGU2VAh3Ka3vhVE7zBoyGbveK17UcbJ2nOYIOSFqAwqPQIQCVEAiPOgUOU6B10+yNbpqumcj/nScAq6l7tTTj0Nqm+0Rx6inK9Ykx3iE+lCgVj/OUFr3w7fy/ynTZF1zh9ohS2PmH4gtlwmcrUrI4cte8D8CCFS+QOiox4IAAhUu8GyTDRw2r7spys4VXtRiFC+r5mvfdp7l/Chl/KfFyHzk+3hC5R+j9G8PhzmTbMjCantQsT7vES/yGKFSf0Do7B+5A8VHIAoBnoBEcZgpZMwCoZOnKh9XyYDKh8eJkLVTnCsf+yhbF3hkjRh9CmypNW5VcpnPY+1p9nZVp+2qeP/oc8+s0JeAuqbZNR31tnVfK/I5AgikX4AKSPqPISVAoFeB9nk2VSt8vdeV+LC/Aheq8uE2wZ12uoPStUrMLdHfI5B8vfAE5Aoll79/I6fZ6zUZ201PxWYnz1r0EQapX9UdM+tts+glAECgwgVcvoAr3IjiIZBaAbWrPk3NGupTW4Dyyviv1Pl4smOWwkXWTUoud+Md8xVDqPEqpNtIVus224tdVd1PGOfFgFfIMuopyNCqjN3VcbytV8j9EBsBBEorQAWktP7sHYGCCbTV23cUvKlgO4gpcMZ+M7/TJoTOx07F3khx7lMa5hSPMLkLHKNNTsl9s563GN1sz+jk2FdPQhb2vAbv5iBQl+20GbNPsOE5bMOqCCCQIgE6oafoYJFVBPor0N5oe+tC6EatT9Oe/qKtYj3dkX1i4CIb4zjLebioelRpk1XskreLJ6DDaxOVfua1S373vCRNrbHs8ZpFtqPj755f5oiEAAKJBHgCkoiPjREoP4GZDba97tPTr8Dn0DxfU2N7OF4ADVG27lGi8uFzfJJGCTfhLlbaP2mgZdtrosJbs1k7dtlr/s9fQLXDLy0eaDeHUfzyj8KWCCBQjgJUQMrxqJAnBPIUmNlom+qX+mbdOlw9zxBs9qFAR6baxo4411778K1EP4VjEmbl3iJRFDb2FghPCcPs89t6BR7Vapco1g+94kUeZ6dhc+3yMJpf5A4UH4GKEuAXuqIOJ4WJWeDVRtuwqot+BR7ngG6Lv5WtsnG159nLHvEUw/0i1ylfhHlfYFnl8HNeIHUt6n+VsfO94kUdJ2P/3TEPy6jPAQpfcQJUQCrukFKgGAVmTbJ1lmQ1y3nGRsRYfucyL1D/mT1GTbWnnOK6N/NxyhdhVhQIzePuVNpgxbfzf1U71BozGbs+/whsuZzAsRrV76TlXvMjAgikWIAKSIoPHllHIAiE2Zi7qrv7FXwKkcQCnbpgPLi2tbuTeOJgSwOcof+P9ApGnIIK1Cr6DKV1PfYSRk2bO9QOUaww4hlLcoGftNfbEcnDEAEBBEotEO7MsSCAQEoFQudMzXJ+h7I/NqVFKKdshxGRjlTTmV84ZioM9XqhYzxCFUfgSe1mjNI7Hrt7/SRbY9Eie0ixPu8RL/IYnbpw+XptS/ccOpFTUHwE0ivAE5D0HjtyHrlA6JS55lvdnWepfHicC1k72bnyMV7ZcpvszqOIxOi3wBe15q1KLpNErnO2vVPVabsq3j/6nQNWXJVAte4UTO9otG1WtQLvI4BA+QtQASn/Y0QOEehRQJ0yWzTc54E9fsibuQlk7IK6Vjsnt416XTvcPb9Cie/YXpnK+sMdlLtfeh3DkdPs9ZqM7ab+RbPLutTpyNwgOd7eNsU2T0d2ySUCCKwswB/HlUV4jUAKBDoa7HRlc1IKslr+WczaNeosXO+YUde75475IlTuAgdpkwty36znLdZtthe7qmxnfTqv5zV4t78CegoyNNNld81qsPX7uw3rIYBA+QhQASmfY0FOEOiXQFujHaU/vt/v18qs1JfA/fPWtAmhs3BfK/bz8421XuiT8/F+rs9q5S9wtLL4Pa9sjm62Z3Sy7as7+Au9YkYcp1aWM16t9xk0IGJHio5A0QXUl4sFAQTSIqAnH/uo8nGD8hvmlWBJIKAvv8drFtmOjrOchxGUHlNaP0G22LR8BcITR7enIRrNaS8Nm32jYtaUb5HTkTN9Jz4xcJGNcfxdTkfBySUCKRbgCUiKDx5Zj0tA7Z130B/aa1VqKh/JD/3zVTW2p+MFy1BlKcwhsX7yrBGhTAValK8DvPKmPke3acjnY73ixRxHNxO2XDzQbn1+ks+gATFbUnYEiiVABaRY0uwHgQQCM+ttM7V3vkkhXEblSZCVSti0PVNtY0eca685FWaQ4tyu5DaLtlO+COMrECr+Vyvt5BW2ttkuVVOs07ziRR5nzOAquyKMDhi5A8VHIBUC/KKm4jCRyZgFXplkG1VluicyGxazg0fZdaf0ra6sjas9z172iKcY4aJ0uhJDgjqBlnmYgcpfaDa1hVc+9STkdD3ZbPWKF3WcjI3vmMvQ11GfAxQ+NQJUQFJzqMhojAKzT7Dh1dV2t8ruMjNzjIbLlXmB7jbvMbrVnl7uvSQ/qj5jlyjtlyQI26ZOYIhyfI/SJl45rxtmUxTrOq94UcfJ2DHqK3dK1AYUHoEUCFABScFBIotxCsyZZEM6F/te6MQp2V3qMHvyf9e22qOOBv+rWEc4xiNUegSGK6vhxsAIjyyHUdjmDbNDFes+j3ixx9ATpR+rEnJk7A6UH4FyFgh38FgQQKDMBJ5tsoHD5nV3anZrb15mRSxmdrIabeiIuma73HGnxyjWhY7xCJVOgfA0bTsll3k9Xj/J1li02B7Uk7ovpJOjrHLdmcnaQbrpEJrMsSCAQJkJ8ASkzA4I2UEge6BVrznPt7Nr5KonOVc+viHPaZGbUvz3BTbTf26DQ6xztr1TtUSzpZs9B3BigWo9CZneUW/bJo5EAAQQcBegAuJOSkAE8hfQH8xMxyj7qf53G+4z/9xUwJYZO6euxc51LMmOinW5Et+djqgpD7WD8u82PPbIafZ6tSohap4wK+Uupc9+xlbPZuz2tgZGqCv9wSAHCKwowB/RFT14hUBJBWY12I/U/OLbJc1E5ez86tqh9l3H4mypWLcoMRSyI2qFhNpH5XCbpHDEBfaSOi3toqaDcyvEp5TFGKLK3J36bl2/lJlg3wggsKIAFZAVPXiFQMkEdJfuaD35+F7JMlBBO+6+4JhvE0LnXqdibaw4dyh93CkeYSpP4CgV6QdexRrdbM/oD/S+uiGx0CtmxHFq9UUw49V6RhOM+Byg6GUmoL/TLAggUGqB9kYbrwuNq5UPbgokPBj6Untcs5yP0USD7yYMtWzzWv3wmNL6y97gfwR6EajXZ+f38nlOH7XX2156EhI6UtfktCEr9yTw5MCBNib0tenpQ95DAIHiCVABKZ41e0KgRwE9+RijX8S79CFNe3oUyuHNjP1Vdzq30d3jN3PYqrdVh+rDh5U2720lPkNgOYHw1G280vXLvZfox45Gm5jNds85kygOG3cLPDC/08ZtMs3ewwMBBEonwN3W0tmzZwRMFxZfVOWDfgU+50J7psrGOVY+BilbodkVlQ+f4xNLlPB3dbrSWK8C1zbbpWqe6da8yytfKY0zZnCVXZFt4mlzSo8f2a4QASogFXIgKUb6BGY22sa6qxkucNdIX+7LLsdzVJEbW3ueveyUs2rFCU3itnaKR5i4BAaquDcofd6r2KNa7EeqhLR4xYs6TsbGz5rnN2hA1JYUHoE8BaiA5AnHZggkEXjlOKutytoMxVg3SRy27RaYr3/3rm2xvzl5qC5jlyrt6xSPMHEKDFGx71H6lFfx64bZ8Yr1a694McdRZe5oNX9l0I+YTwLKXlIBKiAl5WfnMQq8cLINra7pnuV8/RjL71lm1RQW60vsAM31ETqJey1nKdDhXsGIE7XAOir93UojPBQyGtVt1nw7VLHu9YgXewx9f5yhTv7Hxe5A+REohUC408eCAAJFElCzq0F68hEuHrYp0i4reTdqwWaHq2nKFY6FDBcjzHLuCEqoboFn9O+2SvM8PF4/ydZYtNge1Mh5X/CIF3mMTn2PjNf3SGgyx4IAAkUS4AlIkaDZDQLZA606k+3unErlw+F00AzHJzpXPv5b2Wp1yFoMIRapkGHyvUdjKKxDGTdVjJuVVneIZWEYWQ24sKtiPecRL/IY1boTe7WGQt8pcgeKj0BRBaiAFJWbncUqoDtsmY5Rdon+0O0Xq4Fzuc8e1WznOcYMFx+XK/Gd2DdqGGb2EKVblfZQekqJpW+B7bXKtUphgIPEiwZceENn61gFmpk4GAEG6mnSje1TbAsoEECgOAL8sS2OM3uJXKCj3v5Xf+COiJzBpfh68jFdHc6/6xLs/SBf0n/h7nQYuYilb4EGrbJsjou39PPuSi/3vRlrSGBvpQu9JOqm2szqLhuniQrnesWMOM4Q67J7Zk62TSI2oOgIFE2ACkjRqNlRrAJ6tH+MLhA8L5hjpRSj3Vk31Cbofz1UclnCxcbtSh93iVb5QU5VEVfuI9Ou98Kd+Ncqv/guJfyOojS5RFKQEefbX9QZKlQCw2hwLMkEhldX2d2vnegzaECyrLA1ApUtoL/jLAggUCiB9gb7hmJPV6KynxBZX1Z/qKqxHUeca+8mDLVs8zr98JjSesve4P9eBS7Sp8f2ssaW+uwBJSpzvSAt91F4ktS63OtEP+pGx56qlt+kIDWJArFxEHhanZy226DFZ9AASBFA4KMCVEA+asI7CLgItE22HdVR9E4FW80lYNxBnu3K2LaOs5wPE+fDSpvFzdrv0v9Ka4Z+H6H/R2/LjvrwLiWas/Wm9P5nwTLcoLiu71X7t0ZbvX0zk7ErtDZ/2/tHtsq1NGDIg+922W6bTLP3VrkSHyCAQN4C3JXNm44NEVi1wKx621KVj1u0BpWPVTP195M2XQyMc6x8DNKOwwz0VD76dwTu12oTlPqqfIRov8lh3bB+zEv4+3uV0s5eCKNa7Uq1Tfy+V7yY46iv2Q6Dq+3aMHphzA6UHYFCCVABKZQscaMV0FwfG+tufbjApSlK8rNgjm7l7lzbaq8kD9UdYYD+vUFpK6d4lR7mcRVwX6Vc7gJfo/UnVzqMU/nCk6JwPrrN56GhqX+sCnuzU/5iD7PPrFq7IHYEyo9AIQSogBRClZjRCrxynNVqosEZAhgeLYJfwefrnvteGvHqb04hQ7OUS5TGOcWr9DB/VQF3U/p3HgUNIz2dncd2MW6yhgodZkv/tFfhR7ba8TrZr/SKF3McPQk5SrOl/yBmA8qOQCEEqIAUQpWYUQq8cLINra7pbv++fpQAjoXWxdNifTkdUHe+/dYxbLggnuAYr5JDtalwofLxZoJChpHffp5g+5g2XUeFDZWQkR6F1u9PtmO+HalY93rEiz5Gxn6oodR5qhf9iQCAp4C+p1gQQCCpgJpdDVr65IOmPUkxzTrVhfaQuubuSduSR3s/won6jzvy/dN8Q6tto/T3/q3e61qh/fx1SkzA2SvTBx8+o5+2U3KZ1+P1k2yNRYu6KyFf/WAP/JCvQKeath2k5qA35huA7RBA4EMBnoB8aMFPCOQtoMrH5dqYykfegh9suKQAlY+DFf2sD/bAD70JzNeHeyl5VD7CfjqVwuhZj4YXLH0KbKo1blZavc81+7HCOmfbO6t32q76nfJ8ktiPPVfkKtXq4D+9Y7Jff52KVKJQCPRTgApIP6FYDYHeBFQBOU+fz+ltHT7rU6BTj2QPc37yESZou0KJp7198pumPuh+UvG7vlfNaY0FWnsPpady2irelcMTkF8rucznsfY0e7u62nbWL8BD8ZK6lfyWjoX2tFs0AiEQsQB/lCM++BTdV2BWo322K2v3KWqtb+QoooXKx7fU4fxqx9J+WbF+o/Qxx5iVGsp9TooeoMLvxWNK6/fwGW99VOAyvTXxo2/n987sE+xjXUvsDt3F3z6/CHFvpe+nX44cZkdmmmxJ3BKUHgEfASogPo5EQaBboG2KfSrT1T0K1ich6bfAAn0RHaLKx0393qLvFf9TqzyitFbfq7KGBFxn5e5FdGN9FiohjBLXC9JyH52hn7+/3OtEP3b3CVmsJl5Z2zFRoPg2PlvfT9/V95TqbywIIOAhQBMsD0ViILBUYNRU+4dV2dZ6+Swo/RKYqQrbNs6Vj1HacxhRiMpHvw6BnabVWvu3auK1/qkIoTlWPkP7Jt55CgOcqjyHyqHLEvqE1A7t7hNyvkvAyg8SngyeXNdiJ1P5qPyDTQmLK8ATkOJ6s7dIBJaOihUmsDo8kiLnXkx1jB1QY/sPP8dm577xKrdYW5+EJx+fWeUafLC8wE/14pjl3yjSz+EO/J1KqxVpf2neTbjrfpjSlZ6F6GiwgxU4NPMa5Bm3gmLNyWg0vtpmu6eCykRRECgbASogZXMoyEglCrTV2zf1R+xilY0/8ssf4IxdNm+oHffZpu6Oz8t/kuTnwdp4htLXkgSJaNtrVdYwQli4y1uK5Rva6XQlnsT3rb9Yq+yp5DqvR1uDfVX4N6oiMrLvLES0Rsb+WL3YDhxxgb0UUakpKgJFFaACUlRudhajwKx627IrY9er7OvFWP6VyvyOXjeoScMvVno/6csBCnCr0m5JA0WyfeicH0YIe6/E5T1W+w9PCln6FghDJO+k5DpKmZ7W1mkUvyuWxtZ/0S/T5g2zE5xvjkSPCgACKwtQAVlZhNcIFEDg5aNtzZrVNRdFtnt24lh/7x6tydi31m22F52Jg2eo0BzmHLdSwz2hgo1RKpd+GD9RXk6uVGzncoVJIkMfs+c84+oJSEY3SiZlMxaORaxPa1/OZu24Ua12h6ctsRBAoGeBWC+EetbgXQQKLBAmscpW2yWqiHyhwLsqm/D6knlLs3CcNrLNLshc3z0xnXfewhwsU7yDVmi851WucAH7WhmVL/wdukzpiDLKUzlnZaYyt5VS+N91ebXRNlzSZRfq93VX18DlHSxMfnrRgPfse8MvKptKeXmLkTsEHASogDggEgKBXASenGgDRg7SBXPGfqDtQr+FSl3U8sym1wywk507mi/v9V29OHP5N/h5lQLt+iRcuL68yjVK90G1dn2d0n6ly0Kq9vwX5XZbpbmFyHV7o43XTZKzFPuThYhfRjF/p7mbjhrdyuSCZXRMyEokAlRAIjnQFLP8BNqn2Gg9D/iuKiLhzm+ljQZ0v7oWn1Q31f5fAeUPUewwMhDfY30jz9Eq2yj9re9VS7ZGaPoTOlmHfLL0LfB7rbKjUugb4r681GSrD5xr9frtCpX8Ye47KG3AZ1WuMzQk8XWZppINwlBaAfaOQIkF+MNd4gPA7hHQDMXDOzv1RCRrk6WR9vbXj2W77LRR53fPQF7IgxvmkrhZqaaQO6mQ2OECdazSb1NQnqHK48NKm6cgr+WQxduVifDUaEmhMtM9eeF7Gqo5YydpH2sVaj//v737AJejqvs4vgkSQgk1tIQQiEhEuojSm9KkqIiKdPR5QVBEBERBIKCCLx0BFRsgvQmK0qsUEUQp0lsohhp6C6G8v99LVpbL7t0p5+xO+Z7n+Sf37s78zzmfmZ2dM+32Iq/udfm3trOHjJ7UOCXS5aC96AZ1IFAJAQYglViMdKIKAk/t0ZjvzTcau+tG0G3VH/89i7KUKWrzWfpyP3rMEY0be9DoFVTHZYqZe1BX2auYqg5srLioRB0ZpbZep1ioRG3uZ1NPUuXbKPQRjFc8EJk6pbGdPus7qZbx8WqKkvk67ewcOv+RjT/q/6hOUVpPUgQqKMAApIILlS6VW+COCY1hczzf2FDfktvoA7q+/p++iD1Su/495J3G76ebvnHifIf27KbmxWXxV0Wpj8T2aHl6R2tbhS9TK1tZRA2+VjFv2Rrep/YeqHr37kXdWqmGTNrl/x8HvK3OinxedRb1PraH9TeYTtLZ5d+P+Vnjvl7YUAcCCCQXYACS3IopEei5gC/PevvNxub60v+iPqyf0v/9HozcoeOH5+so6BkLHNm4pccgC6g+X0Y0psf1lrW6XdXwI8vaeLV7ecUVillK3IdeNv27quyIXlbosyJTpjY2GfJ243MajKyjuvt6VlLbyMf1KN2L9KTBk0bP2rh6CPd39HJ1oC4EUgkwAEnFxcQI9E/gqZ0as0z5UGO16YY2Pq2BiG8+XUoR9TM87Qv96neGNq7WyOeSCH/DIynoSE14jeKjSWeo+XT7q/8TKmDgv1dygaJqD2mIsWi0WWhspzgxRvJuOX3T+gwvNNbQAGBNbTdWV2P8qPHY92g9rzquVlw+9K3G5fMf3bizWzt5HwEEiiGg7QQFAQTKKDBpt8ZIPb/l47rpe2ldarCEzkosokuiFtYX//yp+zNEj/N8p/GA5nPcpWHNLUOGNm4ZdVghHtnqSzx8z8eKCkp3gV9qkh27T1aaKTZTS09RDC1Ni/vX0MLc8zNp+8ZMb83YWFLbkWWHahvl7ZO2TeO00+FH+6YdmEzR9ukh5XhIK8Fder73bfr91tH/adzOzeT9W9moGYE8AgxA8ugxLwIFFHh018aMQ4c0RmpgMpcGJv5/uJr536draYfgdf3+2tuNxos6m/Kkpn1G93C8UsCuuEm+5OxPijr9YTT3O2s5TzNuqngra4KCzucbn48taNuK1qxCP/XsnS81pntqVGPk20N1AKXx7vZJ26JZWxGHDtUfL31bjxce0pg85C1tn45uPKOdFZ/hoSCAAAIIIIAAAlEFfIDkRIV3PIjuBpfLqcqXKh3EepD4c/C0rLhcUQgUBBBAAAEEEEAgjcDhmpiBRzKDm2Q1Ig1uCaf1gPQ3CtaJZAaPysqXO1EQQAABBBBAAAEEEgjspWnY0Uxm4EeM1uVxtdOpr+ewbiT+bPxbVjyyWggUBBBAAAEEEEBgMIGt9KYuC0+8k1XngcpjclpIUafi+5n+qqjzck/T9xtk1dfH49Zp5aSvCCCAAAIIIFA+gY3UZD/JJ80OVl2n9SNIly7fIg7S4tmU5V+Kui77tP0+X1ZpnzwVZEGRBAEEEEAAAQQQKLLACmqcn8aVdueqjtPbaZUiL8wetG2U6nhIUcfln6XPJ8nK99FQEEAAAQQQQAABBCSwhOJZRZYdq7rN84ac1ldQGo1FhPCEom7rQNb++kliFAQQQAABBBBAoPYCYyTwiCLrTlWd5vO9MdsqKO8JfEI/vqSo03qQp6/ffY+OnxBAAAEEEEAAgfoJ+I+R3a3Is0NVp3l3rd8qkqjHa2kq/4HNOq0LWfvKIDbRKsVECCCAAAIIIFBFgZnUqesVWXek6jbfj6q4EgTs02bK5b8AX7f1Ikt/uYwv4IpHKgQQQAABBBAoh8D0auZFiiw7T3Wc57hyLNa+t3In1qnEnyk/yGClvi8xGoAAAggggAACCPRAYKjqOF1Rx4FElj6fJyseoZp8xfwJ61biz9YzslosOS1TIoAAAggggAAC5RQ4Qs3OsiNex3mukNXwci7mvrXaj5r9taKO60uWPj8qqwX7trSoGAEEEEAAAQQQiCywj/Jn2Umq4zy3ymr2yMujqumnU8fOVtRxvcnS5ztkNWdVVwb6hQACCCCAAAL1FdheXc+yc1THee6T1bz1XVWC9HxGZblaUcf1J0ufb5DVzEHkSYIAAggggAACCBRAYGO1Yaoiy45R3eb5j5wWUlDyC8yqFP9S1G0dytrfP8uK+43yr3dkQAABBBBAAIE+C6yu+l9TZN0pqtN8z8tpmT4vr6pVP0odelBRp/UoT19PlpXvo6EggAACCCCAAAKlFFhSrX5WkWeHqC7zviqnVUq5lIvf6A+riU8o6rIu5e3nwcVfpLQQAQQQQAABBBD4oMA4vTRJkXdnqA7z+w/DbfBBQl4JKPAJ5XpRUYf1KUQfdw9oTyoEEEAAAQQQQCC6wNyq4W5FiB2hqud4W07bRV8iVGCBtRSvK6q+ToXoH+ul1xgKAggggAACCJRCYIRaebMixE5QHXLsVoqlWp1GbqauvMX6mejz6TNzn63OoqcnCCCAAAIIIFBFgWHq1MWKOgwcQvTxwCquBCXo046so4k/o9ybVIIVmiYigAACCCBQV4Gh6viZihA75nXIcaKseNpQ/z4tP2ZdTfxZ9dPZlurfoqJmBBBAAAEEEECgvcCxerkOA4cQfTxDVv5r3ZT+CXjwxzqb/DP7iLzG9G9xUTMCCCCAAAIIIPB+gR/q1xA75nXIcbqs+GNv719/+vWbByHHKOqw3oXo4x2ymr1fC4t6EUAAAQQQQACBVoEV9MszihA7OVXO4UvUGHy0rjn9/9mDkKMUVV7vQvXNZ4x8qSUFAQQQQAABBBAohMDiasWjilA7O1XLw+CjEKtp20YwCOn+uf1pWzleRAABBBBAAAEE+iywsOq/V1G1wUPe/hwtE+756PPK2aV6D0L2UvCI3vd/ft+UyfZd7HgbAQQQQAABBBDoq8Dcqv0KRd6d9irMP0UO7Lz1dXVMXflGmuMFRRXWv7x9eFYOG6YWZAYEEEAAAQQQQKAPAj6avKfCR0/z7gSVdX7fE7OmglI+gUXV5LsUZV33QrT7JvV/XPkWHS1GAAEEEEAAgboLrCWAxxUhdojKlMM7bwspKOUVmENNP0dRpvUuRFvfVp8PU0yvoCCAAAIIIIAAAqUUmE+t/oMixM5R0XO8rn76PgKedCWEipQvqx9PKYq+7oVon//WxwYVWW50AwEEEEAAAQQQaHxaBlW+rOUW9W9ZlnMlBXw25DhFiJ38IuZ4Q307SjFCQUEAAQQQQAABBColMKN6c4DCZwqKuCOWpU0vqC/fU3DWQwgVL75BvWqD6CvVp49VfLnRPQQQQAABBBBAoLGwDH6pKPNA5FW1/2DFXApKfQT8OOVtFA8qsgxYizLP39X+jRV+YAQFAQQQQAABBBCojcBo9fRIxSuKouyYdWuHL1f5uWKUglJfgWHq+o6KxxTd1pkivX+12ruOgoIAAggggAACCNRaYB71fh/FvYoi7ay1tsVHvH+o8KCJgkBTwE+L2kTxF0VRHzv9stp2kmJVBQUBBBBAAAEEEEBggMBK+v0XCv8RtNYBQD9+9iViZyjWVgxVUBAYTGCM3txPMVHRj/W1tU7/RffLFdsouLlcCBQEEEAAAQQQQKCbwAyaYH3FIYqbFd6hat3BivXzk6rnFMVmitkVFATSCvi+iuUU+ytuVPTqzIj/5s6piq8rPBiiIIAAAoUU4OazQi4WGoUAAm0E5tRraypWVPipPeMVYxW+KThrmaQZ/VSjexS3Kq5V3KmgIBBSwGcgVlV8SrGMYmnFgoo838E+Q+j11uuv112f7bhDQUEAAQQKL5Bn41f4ztFABBCovIDPkiyq+LBibsUsLdF69uIlve7r4CcrnlE8oPDOmx+hS0GgHwLDVanX23EKr7uOORReh5t/hfw1/ez11uvv89N+9h8LvFvxtIKCAAIIIIAAAggggAACCCCAAAIIIIAAAggggAACCCCAAAIIIIAAAggggAACCCCAAAIIIIAAAggggAACCCCAAAIIIIAAAggggAACCCCAAAIIIIAAAggggAACCCCAAAIIIIAAAggggAACCCCAAAIIIIAAAggggAACCCCAAAIIIIAAAggggAACCCCAAAIIIIAAAggggAACCCCAAAIIIIAAAggggAACCCCAAAIIIIAAAggggAACCCCAAAIIIIAAAggggAACCCCAAAIIIIAAAggggAACCCCAAAIIIIAAAggggAACCCCAAAIIIIAAAggggAACCCCAAAIIIIAAAggggAACCCCAAAIIIIAAAggggAACCCCAAAIIIIAAAggggAACCCCAAAIIIIAAAggggAACCCCAAAIIIIAAAggggAACCCCAAAIIIIAAAggggAACCCCAAAIIIIAAAggggAACCCCAAAIIIIAAAggggAACCCCAAAIIIIAAAggggAACCCCAAAIIIIAAAggggAACCCCAAAIIIIAAAggggAACCCCAAAIIIIAAAggggAACCCCAAAIIIIAAAggggAACCCCAAAIIIIAAAggggAACCCCAAAIIIIAAAggggAACCCCAAAIIIIAAAggggAACCCCAAAIIIIAAAggggAACCCCAAAIIIIAAAggggAACCCCAAAIIIIAAAggggAACCCCAAAIIIIAAAggggAACCCCAAAIIIIAAAggggAACCCCAAAIIIIAAAggggAACCCCAAAIIIIAAAggggAACCCCAAAIIIIAAAggggAACCCCAAAIIIIAAAggggAACCCCAAAIIIIAAAggggAACCCCAAAIIIIAAAggggAACCCCAAAIIIIAAAggggAACCCCAAAIIIIAAAggggAACCCCAAAIIIIAAAggggAACCCCAAAIIIIAAAggggAACCCCAAAIIIIAAAggggAACCCCAAAIIIIAAAggggAACCCCAAAIIIIAAAggggAACCCCAAAIIIIAAAggggAACCCCAAAIIIIAAAggggAACCCCAAAIIIIAAAggggAACCCCAAAIIIIAAAggggAACCCCAAAIIIIAAAggggAACCCCAAAIIIIAAAggggAACCCCAAAIIIIAAAggggAACCCCAAAIIIIAAAggggAACCCCAAAIIIIAAAggggAACCCCAAAIIIIAAAggggAACCCCAAAIIIIAAAggggAACCCCAAAIIIIAAAggggAACCCCAAAIIIIAAAggggAACCCCAAAIIIIAAAggggAACCCCAAAIIIIAAAggggAACCCCAAAIIIIAAAggggAACCCCAAAIIIIAAAggggAACCCCAAAIIIIAAAggggAACCCCAAAIIIIAAAggggAACCCCAAAIIIIAAAggggAACCCCAAAIIIIAAAggggAACCCCAAAIIIIAAAggggAACCCCAAAIIIIAAAggggAACCCCAAAIIIIAAAggggAACCCCAAAIIIIAAAggggAACCCCAAAIIIIAAAggggAACCCCAAAIIIIAAAggggAACCCCAAAIIIIAAAggggAACCCCAAAIIIIAAAggggAACCCCAAAIIIIAAAggggAACCCCAAAIIIIAAAggggAACCCCAAAIIIIAAAggggAACCCCAAAIIIIAAAggggAACCCCAAAIIIIAAAggggAACCCBQJoEhZWpsDds6TH3eRLGOYrRiqKKs5S01/FnFQ4o7FdcoHlH0qqymij6vWFQxQ68qjVTPC8o7SXGX4u+KWxX2LUqZTQ1ZVbGkYrxiLsVwRdHKS2rQkwo7/kNxk2Kqoh9lQVW6ksLrpz/rIxSvKNzGexW3K7ys31SUscynRq+s+KhiAYX7N0Xh/t2naPbPr4Uurteffa+LM6ZM/pymf1rhZXCD4p+KqYqylNFqqNer5RXzKkYqhinSFH9GvL0+Q/F8mhlzTDuL5l1FsbTCy83tTrvsNEv08rJqeEpxt8LbkBsVMdZhpe1aRmkKm3kb0vyMvaaf3Uavv/9WeB1+Q1HGMrca7c/yYooxCm9D/Fn0NuR+RbN/7jMFAQRyCKyoeR9QvFPh8EBkb8U8iljFuS9RVNnxGfXvF4qPK/pVvFOzleIyxZuKMnq/qHb/XrG6ohfFO4Re/+9SJPFy+05QrKAoQ/FA9NuKfyneVnTrowdc3sldVxHi4Jh3WC5UdKs3zfteBr9WFHkZzKH27ay4RZGmb92mnax8X1XEKh9S4q8oLlB4x7Jbe4r4vtfh0xTrKHpR5lIleyhuUyTx8GDkVMXqijIUD0S/ofDA7i1Ftz6+pmnOVWykKPMBWzWfgkB/BHy03h+kbh+2qrz/qvp6uMI7LCGLN84+8lMVpyT98A7Xx0IidsnlHcWvKXw2K0n7yjLN9eqPDwLEKF7Pj1B4vc/q4eW8uKKIZQY16gcKn/HM2j+fafi0ImvpxWf/UjVuyawNjDCfDwLsrvAZ0qzu3ebzQHJ7RejigU3VDrjdrD6tGRpqWr6Z9f9BCh/977bMOr1/peZdVlHE4sHorgqfXerU/m6v+4zIhgoKAggkFPDOyZOKbh+uKr7/uPq9XkKnJJOdXVNHn2LfRxH7CNAY1fHXChv7iNvPFN6hDlW8fns9D/H5fV15vqcIcbZAaYKUZZTFX/wh+uccJyh8FDRt+YNmCNWGwfL4bJ93BKdL28DA0y+tfL4MaLC2hnrP2xdfBhOizKskFytCta1oeTxg+61iJkWosroSPawI0VefadpfEfu7QlUkLh/VlB68heifc5ylmF1BQQCBLgI+chjqg1fGPN5ge+c5b/GRSecqo0GoNvsoeZadtyT2q2giXxsfqq1FzuPT/95Rylv2UoIY66QvWwo5SMraz001oy9BCb0s71TOhRRJi3fGQ7ehW74rVKcv+epH2VqV5jmb1q1v7d4/KUBHl1OOSYp2+av22u3qpw/Y5C07K0GMS1zPV96Qg6Ss/VxfM8Y4g/eg8o7P2ijmQ6AuAn9XR6u28c3Sn2PkkOfIrnf2stRbtXm8PvmsWsiyrpLF2NEssv296vMCORC9s+UzKrH6+Gfl7ucgxJfQxNgxanqdq/xJy76asDlfL//3TubIpI0MNN2OyvO2opf9dF3PKfIcNfcBjBg7mr12SFPfI+rzIoqsZVHNGPPemCuUv5+DkI1U/xRFGtM007p/FAQQGETATxlJ86Gq8rQ/HsSp21vH4/jf9ehKWYTaOf2Ucr1cU9t/q99zKLIW7yzG/Lyep/z9uBRoA9Ubc8fIg795FEmLj87HdB4st+9dGZG0oTmn20bz92Pw0ez/fBnb77PTHsA089Tp//vV7zxnU7fQ/DEPZFyq/KG+K5QqcVlDU76miLUuePAX4gyU0lAQqK5ArA9gWfP6yGqWco5mKmufY7T76CyIA+bxJSaP1dzVZxrynJn7UWS/Xyp/L0vsAanXt7EpO/RHTR/jM5Q054kp25tl8iU0U68vuxrY//EZGu5LQu9RDMxVp9+vUv/zHCj4VmS/U5U/z9ktzZ6qxB6Q+lJh31dCQQCBLgJ12hAn6avPCM3fxazd2wxAPvglv347qBSvYfqu6Q4pzNpN6hvbk6z7Wac5oF2lEV5bXDknR+yLP/tLZ2h3vwcgXm6bZ2h30llm1IS+Lybr+hFqviwDkOML0O5Q/c+TZ4+kC7vDdIdEdjy2Q72hXx6nhI9H7IsvFV4xdKPJh0BVBfJs1Ko678kZFjY7yx/cQblPjsMyWHoWP72pqutX2n55p3suo2QsPvp5liJtvWmm3zVj25LO5vthHo7YBx/d930CWUoRBiC+uTrW9fR7KneadSHWtGkHICup3f28ZCyWQ5a8L8litCJr8VnY3ymy1J10nr2zNi7hfD6jHvNs2BvKv27CtjAZAghIIOnGoU7T+UvLR1vTFAYg7delr6dBbJn2ev1cp3WuW18ntNhk+dEDQV9v3a2erO/7M7NNloYlmMeDr5hH4N9U/i8kaEenSYowAPFy80AhdJlDCfP8fZWs61O7+dIOQC5R29vlqetrR+RcOXwg49zIpjvnbGOn2WfVGzdHbLu3f1t3qpzXEUCgvUBdN8bd+n1ce66OrzIAaf9l7xup0xafwu62fOr2/jMyyXo2qenvL2HftBzLzkcA815212xr838f1b9OEavN3nH4WrOyjP8XZQDim2rnzdiHTrPtqzdi2afNm2YA4gNIafNXfXo/zGNEpwWd8HVfjneNIpaVb3j/UsK2JJ3M283Yg9FdkzaG6RBA4D2BWBuSsuf1Ub8Z3mPq+hMDkM5fSst01Xv/BL4euOzrT4z2b/x+pky/zaO57o3o62ugV87Usg/ONL1eukARw7KZc48PVpv6laIMQNyn/VK3vvMM3v49rmha9fv/NAOQAwvU7n67tda/VefFnfid2TTlrRF9pyj3OolbM/iEvrn9TEWrQeif8zw9c/DW8y4CFRcI/WGsUr41Uyx7BiCdN/Jpr+2dKPcqrUeh+hLqiVMflm/MHcvnlH8pRZ7ia85PUISya5cnxJPa3MciDUCeUnt8lDpE2UFJ2rn167U0A5DbCtb2fpkNrPe0ECuGcoxWTFQMzB/q9xeVezlF3nKUEoRqU7s8Jyq/t1UUBBDIINDuQ8Vr7260JqTwZADSeUN/cQrHsZqW9a+9wV0pHLtN6gGCBwqxrP0424UUWcthmjFW25z3FIWPjoYoRRqAuG/bB+iUbWLed5Nl2SYdgMyptsf82xVZ2l6UeSYFWDeaKT6iH55UxOrb08qd53G2+0dsm/v8J8WHFBQEEMgoEGvjUYW8Z6cwZQ2eTL8AACaSSURBVADS+YvoPykcN9S0VVh3YvTBN0sPT2HZbdI1NcHrihhtdc77FFnuSfh+xDa5XZcqhilClaINQO5Rx/IOrr6gHLHWi6x5kw5AVi1g27P2OcZ8fqhDqPJJJXpJEaOdzvmIYowibfmGZojVJue9XhHrqXNp+8r0CQXybhQTVsNkCAQR8BEeSn6BUUoxc8I0vjyI0l7AT6FZuP1bmV69UnNtpvDR4hhlESU9XzFLiuRbatoDU0yfdtIbNYN3rn3DfFXLourYBjk7t3vO+fs5O9uQwfX9uQxVYn+ePPi4UOGzWknL5zXhMUknzjCdH6ziz9erGeZllj4KMADpIz5VpxYYmXoOZugkkPSoG+adBN99Panj4Fnee/c8/fit934N/tPyyugzBDMkyOyzX8crhiSYNsskPiOzkeLlLDOXbJ7dcrTXR7VXyjF/v2dlGzL4Egjtc5mq207hJ8rFKIsr6QWKJAex1tB0pyt8sCZGeUhJ11H48lVKyQS4Xq5kCyxhcydruh0TThtjMm9sllB8UZHnmtGBbZt14As9+P1g1fGPHtTTqYqxesM7gqspQu4IJrVM8iXTqe3tXve6eabiVsWz7SaI9Np8yru+4jOK6QPWkdQxTZW/1MTzK/zI1RhlLSX1TsGmik5nW1aYNk2s7whfBri24ilFUcudatgPFH5q3H6KPAfsVtf8HvzdpEhb9kw7Q5vpb9ZrPpPlNny/zfsxX5olcPLnle8sxb8UzwTOPVi6ufXmuor1FMMGmzDlezG2IaeqDXMojknZlqSTf0oTnqHw2cupHWZaSq+fq0hysKNDikFf9rL3Nv3xQafiTQQQSCzwjqbMG48kri3uhN5h9pG/vP1pzv9yiuaeE6jez6WoM+akPgLqL96mRd7/l0zY2CMC1vkX5RqRsN5Yky2mxP585PVrzr9BrIYq71EB29lsb+v/v+jQ9sX1+uSIdXvH4WMd6g7x8h8DtX3zlsb8LkBOD/rSFl926kFi63JL+/MUzT+6peLHcuZr1j++JedgP04IVJ/rvVLhHet+Fl9Sdq+i6ZD3/9b1LHS//jdgO9v182Tlbzcwt5EHBu3mCfFaqKdyqYkUBBBoCoT4cBZlANLsk0/XhuhXnQcgttwxkKOXRa8HIK+oTh9BLELxoCHE+ugcMQcg/mL32aJQbW2XZ4Lyt5YF9MvDinbThnjtVeVeubXCCD+HGoBs2NI2n8n1JS15DPzQgnEtOZP86LNheer0vMcPqMhndvLm9Py9HoD4SPuCA/rSr19XUcUhDJ0j5gDEBwF/E7Ct7fo88CyLt/N+8EK7aUO85gH1ugpKyQXajVxL3iWaX0CBUwrYpjI2yafVvRNUxnKRGv10QRrumyh9hL/oxct6S8WlERu6n3J/Z1r+kdPqirWT5x3ITRXXTauvTP/drcZ6Hc5TfGnqzikSeEdu6xTTd5r0yE5vlOz1q9Xeohxcu1ZtmVgCP+/w76D4Q8S2flO5vz8tvy8nu1ix6LTfQ//nbeJWCtdBKbkAA5CSL8CSNP/2krSz6M18QQ2cWPRGdmjf3zq83o+X/SVWlnXyDbXVO+23RIQ6TLm/pviLwkf6YxTvCH1d4bOhZS12yltsMHvCJN/SdDMmnLbTZN5Ru7XTmyV7vUjbENOVxdWX8HmnPebA/0Dl90DEZx+XVcQq31ZinxWmVECAAUgFFmIJuvByCdpYlia+VJaGDminT5sXqZTJ0dc7r6Pwdecxir8Hfqv4ZIzk03Luof9Pipi/F6kvVyX/zFnRCM2/fYIcM2manRJM122SEIOmbnX06n22IdmlfemjLxeNNWjypV7HKNZQxCoHKPGxsZKTt/cCDEB6b06NCCCAQFoBX762vuKJtDMWYPqD1Yaq7AgfHsDTR3GHdcmznd4f2WWabm/7LN9l3Sbi/doIvKCeflYxsYQ9/pXa7MtFKRUSYABSoYVJVxBAoNICD6p3PhPyfIl66afkNK8PL1GzOzb1DL3zSMd3k70xWpNtNsikvlfkO4O8n/StQzShL32jINAUmKQf1lY82XyhBP//SW305V2UigkwAKnYAqU7CCBQaQEf1f6C4vUS9NL3lPhIfpV2gt9Uf34WwH535fBlK+2Kl+8i7d5I8dp/NK0HSxQEBgrcrxc2UpTh0uir1M6vKPy5o1RMgAFIxRYo3UEAgcoLXKUe+kvZN5cWtfxdDavqjoMvB8l7FmpJ5fhMh4W3W4fX07zsQZIfYEBBoJ3ATXrRf+OqaPfVtLa1TAdbWtvNzwkFGIAkhGIyBBBAoEACRb4swX9nwteav1Igr5BNeUnJfh0gYbuBxqrKu0LO3G6fB0kUBAYTuEJv+gylnwpYtOLLTddV5B3oF61ftKdFgAFICwY/IlACAV8fTkHAAscpJviHApXH1Jb1Fc8WqE0xmnKUkuY9w+AdrKUHNM5PC8tbPDhixy2vYj3mP03d3LlgXfUDN3wA4/GCtYvmBBZgABIYlHQIRBQYrtwLRcxP6vIJ7K8me2e4CGWyGuGb5B8pQmMityHUPRatN5uPV5s3yNnuUPeo5GwGs5dI4Odq608L0l6fvVtPcU9B2kMzIgowAImIS2oEAgt4wzxLoJxVujE4EElp03xXLT+zz6333xnYWHFXn9vRy+oPUWV5P0dbKMcC0xrtG9PzfiefpRwPT8vHfwgkFdhLE/pvAfWz+Izipop/9rMR1N07gbwbu961lJoQqLfA7Or+AQEJnguYi1T9FfA13FspLulTM6aqXu84XN+n+vtV7e2q+NKclU+v+XdSzKPYMmcuz35kgBykqJ+AB9I7KP7Qp657G+b1v1/bsD51u97Vfqje3af3CHQVmFlTzNF1qngTjFXq1RW7KBYOVI039mV6Dnygblc6TfPo4ZXq5XI97Kl3XLZXXNjDOotU1WFqjC87y1O+oZm9nRmeJ4nm9bK/MWcOZq+vgJ+q50HAxQo/DKGXZVdV5rN3lBoJMACp0cLuY1f7uQOft9un5E1QwPmfUpveLGC7aFI+AV8/7RvAr1H4foJeFF82dEIvKipoHT4DcptiqRzt8/bx2znmb856ePMH/kcgo8Brmm8jxVWKZRS9KBNUiR8bTamZAJdg1WyB96m7a/epXqptL+BLRyjVFHha3fIgpBdPkPmp6qn7Tq/PAPksSL+Lb9q9oN+NoP5KCLygXmygmNiD3vhJfn6QBqWGAgxAarjQe9xln2XbOlCdvtackl/gsvwpyFBggYlq298it89n0Lhk4l3k0/Tfo5G9u6U/VBP40koKAiEEJinJVSESDZLDg/cqXmEwSJd5q1WAAUirBj+HFvCN0ycqFguU+NlAeeqehgFItdeAQ9S9TSJ30QcWLlIsGrmeMqT3gZFj+thQX1J5ch/rp+rqCeyrLm0buVtDlP98xcC/hRO5WtIXRYB7QIqyJMK2wzv+vjyiX2V6VTxesaZipoCN+E/AXHVN5cek3lLXzteg399TH3frUT/nVj2++XxlxRM9qrOo1fxSDdtLMVsfGni06ny9D/VSZTUFtle3enVZlD8vvnTQ25CJCkqNBBiAVHNhj1C39qxg1/jjRPkX6kFKwaUa+R2LmGFLNarXBx7GqU4/OnM1xfOKupYX1XH/HYXv9hjgVdXnwQ8FgRACGyvJsSESpcgxStNeqlhFwdMZU8CVfVIuwSr7EqxX+2+oV3eD93aiMp4ePCsJiyDgm0aPV/iyhl6XJVXhuYrhva64YPUdofb4cqxeFi/zZ3pZIXVVVmAN9ewMRT8OTC+ien05Vqg/tKtUlKILMAAp+hKifa0CV7T+ws+pBHzD306KXu8gpWokE2cS+JTm6teOQ7PBaxSgDc229Ov/x1RxL2/M95nMI/vVWeqtlEARDiIsL9E/KmaolCyd6SjAAKQjDW8UTOAmteehgrWpTM3xc9Z9vT6lWgKLqzu+hnrmAnSrH5dvFKDb72vCwfrNg/1eFJ91ur8XFVFHpQWal1H63tF+l7XUgBMU7Jv2e0n0oH4Wcg+QqSKIwG+CZKlnkmvV7R/Us+uV7vUC6p0HH3MWqJe9vIG1QN3+b1Nu1U9X/ve3uD8U4e+PxO0h2WMLNB8kMV/silLk30zT+sEKlIoLMACp+AKuSPf89KsTK9KXXnfjb6rws4rXel0x9UUVmEvZffP3glFryZZ8X822S7ZZKzFXLwYG10vKn20KAlkFZtWMFymK+ChtXy7MQbOsS7Yk8zEAKcmCqnkz91D/p9TcIEv3vYO6nuKlLDMzT2EFZlLL/qQI9fd1YnT0cCX9cozEJcjpSx3viNzOXgxyIneB9H0UGKa6z1Z8vI9t6Fb1TzTB17tNxPvlFWAAUt5lV5eW/1kdPa0unQ3UzzeVx89xX1/xYqCcpCmGwPRqhnccVipGczq2wt8tJynW6ThFdd/wPSAegMUqDyqxb9alIJBFwJ/NkxVrZ5m5h/P4iX7HKTbpYZ1U1UMBBiA9xKaq1AK+6Xyb1HPVdwbv+PjIuJ8mMkHhp+RQqiPgL+RfKTywLENpHmVdrgyNDdzGU5Tv8cA5m+l89uOt5i/8j0BKAT8u+ksp5+nX5NOpYg+WVu1XA6g3ngADkHi2ZM4n8LRm9+VDz+ZLU4u5/XcATlAsq/icgr90LoQKlkPVp21L1q8Raq8vSRpfsnbnba4vGT0mb5I283t7yP1wbWB4KZHABE317URTFmeiGdWU8xXLFKdJtCSEwIdCJCEHAoEFJimfj/LeGzhvlnTXaSa3J1Tx41J9U3iI8qSSbKrwzahFPyJatIMdRWtPt/VhT03w3W4T5Xjfn7VFFDFc5lZeP61rFUWsswJKXbjyC7XIN9LOErBlxyrXKwHzlSlVjHUzT/+L1p5ufdlRE+zXbaIc79+veccqps+Ro9Oss+mNvyhWVkxUUCogwACkAguxYl24Uv3ZQlGUHZVD1JbQ11ufppx+1GDeMq8SLKa4Nm+iHsy/cA/qSFPFmDQT93naLVX/QRHbcJ9y+xIHX2vtneYYZZySXqxYXfFcjAoKmNP9/J0i1BFnn1X5eQH72asmFW0bsmCvOh6gHp8ZPzpAnk4pHtIbqynWVPjerxiDs1HKe6nCBzJ88I2CAAKBBd5RvjrG8+r3Lgpf8xminKMkIRy94Q5d/AefHlaEaN/LyrNo6Aa25DsiUDuLdFnYWPXJ98eE8N+gxSrGjxsq6dRAbW3X38eU2x7Nsr9+aDddqNeuUv7hzcoi/e8DBiHaa/u8ZSElCLX8fP9PiHKnkoTwGZ+wMRMC1feA8sTYsU3YjfdNNlK/hVqum78vc/hf1lDK1xQhlnm7HL5cunVd+FbEulz/TQpf2kkpuUBRPswlZ6T5OQS88fqRwpd/HKUo+qVEamLu4sHW1xTeCc5bZlaCUxUxTnvnbVvr/EvrlxiDudY6kv68lyYcknTiPk63guo+XRHrTPULyu3LAT0Ybpb99MPPmr9E+H915TxDEatPEZqcK+VEzf2HXBnendk7XkcGyFPmFOPUeJ8NLEL5nhpRhnV4KbXzXEWsQb8f8e57Ne9RNIvvfTqk+UuE/z+hnOcpZoiQm5QI1FrAXzRVDl+//A+Fv0y94Yq1ES/yGRB1+//L4fo31LKe8G7K4P+GOgPifvpsjXf+RwdvZbKEH9VkxytCmTvPBsmqTj3V4ppjsiJkW1tzvarcvpShXfGBqTMVrdOH/vlE5Y81CCzSGRD7eocpr59vwg1VynoGxIY+kn+AYmwojJR5Pqzpf67Iuzxb5491BsRtfTxwW1vb7UsC11W0K/5s/1bROn3on09Tfm+rKCUViLXzV1KOyjT7UfXkCwXrjb84nlX42k1viMpS3ojYUO+Mf0axZIA69lYO/1XbGwLkak3hywxCFZ+t+Ynix4p7FR6Q9KqMVUUjI1QWY/1YQO28UDFnhPY6pc8ybq641r+0KT4z5yPNsyvWbvN+iJe2VpJHFPuESBYpR6hl6wMuf1WslqOdh+WYd+CsIT/TA3O3+z1kfcNVgdcZx32KFxW9Kv5czhuhslDrWWvT5tYvFyjma30x4M/eRmyl8H1d7Yq/47dXzKGItS/i+yifU+ykoCCAQACBEEcJbgzQjrKnCHUG5JORIXyk24OzEMv9AeUZEbi9ewVqW4j+FTHHcoG9PUi6K6K5dxy2S9jmWTXdzRHb4uX5nYRtSTNZqDMgIZftxjkcPYAJWa5WshCfpfEJG/XNQPWFaHMRc6yV0DHpZP7c/jOy+S4JGzOjprsmclv2TtgWJkMAgS4CITaQ/gKuewk1APFRr9hld1UQYrk7x68CN3bbgG0L1cci5Zk/oPdMynV9ZG+va2mKj6T6+u5Y5h4QbZ2mQQmmDTUACblsfalI1oHlVxP0Oc0kvmcsxPJMOgDxEfAQ9VU1hy8NDVWGKdEliphWB6Rs7Gya/paIbfI25H9StonJEUCgjUCIDcfBbfLW7aUQAxDfYBfrOvXW5eGdkysUIZa9c/hoa6jiG6FDtatqeZ4Phaw8fojAhZGts24Xxqldj0dsmy9BWVcRqoQYgIRcts1+eScp7WdgouYJfan0vhna0a7dSQcgiwWqr10byv6a131/9kOU6ZTkLEVMk+MyNnSU5nsoYtveVO5NM7aN2RBAYJpAiI3HF9FshBiAXNZDx9Gqa7IixPJ/WnlCXfvrU+ivB2pXiL4VKcfFcglRPMg9URGzbycrf57B9JKa39dbx2qjH06xoiJECTEACbVsW/szg35JO5DbtTVBoJ/XU54QyzHpAMQ7xjHXnRB96VeOkPfs+el1Mfvhz1WewfAimr95D2iMdk5R/s8oKAggkFEg7wfTRwJ8HXndS4gByF49Rvyq6su7/Jvz/0W58uxwtnb9yoDtaravCv9/vxUpx8+HR/b9s/Ln2XFodm0N/RDqfqV2y98D5xCXo4QYgOzZ7HTg/33zdLu+t3vNZ2FGBK7f6WZRhDiokHQA4jrPU7TrY91fO8g4AcqPlCOm5VXKPzxAO5dXDl9ZEKutLyj3sgHaSQoEaimQ94N5SS3VPtjpEAOQRT+YNvorp6iGvOtAc/4dA7V2p4BtaratCv9/JICvb6CMafF35Z85QDubKT6nH3yQI1abH1HuMc3KMv6fdwDia8p92VmM4iebvaxI4vfTGA2YljPE9jHNAGSLhH1O4lKlaULsLHs7H9PkNuWfY9p6E+K/TytJiAFwpz77LEuIbXOIvpIDgVIJdPpQJX39K6XqbbzG5v2C9T0Z/Sizq1LvhCVd3oNN58ta0uwkdOqvd5piHrUarA9FfS/E+rG1XL2zG6uPdyi3l13osoMSxmqz896uyLPDk3cAcmlosAH5jtXv3fx8b8ACA+YL+et6CdrQrY1pti1+wILPcHXLWaf3bw6wQD+vHDEPCPjJivMHaOfAFD7b/5Yi1vK+X7nnG1gpvyOAwOACeT6Q9yq1r7elNHLfA9LPa0nX1AIMtXG+SblC3OR4qPLkWTerNu/aOT9kG2n+qRFNH1PusTnbONjsE/RmzGX6N+XPeuYm7wDEn7+YZREl77bT+PuYDVBuX57pHeA8yzDNAMTd2SdnfXnaWsR589407fU05pmEp5Q/7TLWLInLNzVlzOVyq/L7gB4FAQQSCuT5QHqnhvKuwDn6L6uln0bU73KIGpC1/QPn8/XBeYuPSPsLaWDuOv5+UU7MFTW/z07FsntGuRfL2cYksx8VsQ+2OV+R5d6VPAMQ36vQizLYX9P22cYP96ARq6mOPGfg0u6c+izIQ4pY632Z8l4rBw8Cs5alNePzilh9flG5l8vauBTz+TLDWH1w3isUM6RoD5MiUGuBrB/GM2qt9sHOZx2APKtUYz+YrueveKMZ6o9J+WjrygF64Mv7sq6fVZnPT/NZKIflEprX61gsDw9sQizrJF0cqonOjNgXG/lMQNodtawDkMmqa4yiF8U7439SDFwPvOPny6N6VX6higa2IenvaQcg7tNnFXkGPUnbVuTp/Bn9mDEyFg9On1DE6uMU5V4nY9vSzubP9m8UsfrivOcquDJECBQEuglk+SDeo6SzdUtcs/ezDEB82dNGBXJaWG3xTlGWdWLgPA8oz4gAfRvsyO3AOqv2u9ePL+Qw9M5tqPt72tn6voH1c7Qvy6z+w2cXK9q1J9RrP0nZsCwDEA/SN0hZT97JvfPl7c2vFGcr9lHMr+hlGa7K/qHIsqyyDEDct4My1peljUWcZ2sjZCxePx5UxOqXt3Ffzti2rLN5cHCOIlafnNcDbQoCCHQRSPshfFz5xnXJWce3s2zQdiog1OpqU6jLdX4XoH++JCbLDl7a9bqI0++Sw29uzesDBbH65R2HLXO0L8+ss2rmrDuxST2+naKBWdbPb6TIX7VJ51WH7lMkXRbN6bIOQHzm7JQM9TXrLfP/+6rfWYsPMt6qiNX/t5V7x6yNyznfjJr/r4pYfXNeD/ApCCAwiECaD+BE5cn6JTBIEyrxVpoBiI9+FnkHZC21z5dmpFk3Ok37xQBL10e9Tw/Unk7tLNLr/mLeLafbgpo/1gDE6+82OduXd/Y5leBmRYzlZv/vpWhgmgFI0T/7Kbqda1IfWf+XIs3yy/Pd46PePvOTpr6yT/tT9TdP8UAx1gDEn7Fv5WlcgHlHKMc1iljLOe2Z1ABdIgUC5RJI+uG7Qt3iMXOdl23SAchTSrFu5zSFecfXDIfYgX1aeUYF6JWPYu6v8JH3pOtsGaebrP5tpAhRfBbkckVIB7evV9drdzOYRRMk/dwlNfDfzNiiW8UD3k86AHlS8+V9mtmAqkv9q4+wp1l+eQYghvIlaB5YTlUkXR/KON0L6t9XFCGKn+p0viKkgw9ufT5E4wLkGK4cv1eE7J+fFLZ9gLaRAoHKC3T74HljtquCm6oGXxWSfJGeqhQ+8leWMrMaeqgi7xe2n+LkL/8QZRUluU3Rbb0t4/tnqV8LhEBqyeHPrXe6QlxW5x3t0S25i/Cj16uvK55T5F3mviRjMUXaYpfB6vbR3pMVHMBpL7uNXvbgbDBDv5d3ANKs/RP64aYE9XVrTxHf/7P6Na7Z0UD/+zO2s8L7Ann7fIlyLKQoWtlcDfLBsrz9u1E5lila52gPAkUV6PSBe0YNPlAxT1EbXrB2dRqAeOfd7y1fsPamac5HNfFvFT6y02l96fT6I5rHlxMNU4Qqvi9kC0Wop3Z1ansvXvf6cZ5iRUXM4oHDzxQ+wp+mX9559tnPNRVFLr4k6yBFlid+3az5NlF4RytL6TQAeUPJzlZ4h5cyuIDv69lT8aii0/oZagDilgxVbKq4QdGpvrK87rPCFyrWUMQsviTrEEWWgYgfA7x+zMYFyO11cILCVymkXfa3ax4PYrxeURBAIKFA84P2qqb3Dp13UjZUTK+gJBdoDkB8jff9itMUPg3ry2CqUryTt7XidMV9inaXQ72m1/+h8Hr0aYUHCzHLEkq+t+JiRZKjqM31vV//e/14QGHDHRS9HuDPojq3Uvim3IkKDzAGWkzWa5crvq/4iKJMZbga+xXF8Qqvo/Ye2L8X9dp1ih8pllbkLc0BSPOz7zOd/6MYmTdxDef3DpwHuwcr/qZo3dkdr99jFOfdU3GBYpJi4PpStN+93X1Icbbim4pRil6WGVXZZooTFQ8q3J6BRj4jebXihwpfzlum4oNlmyh+rbhbMVUxsH8+kOPB60GKMh9cVPPrU7IeYaqPUO97upiq9MbCo37vjFCyCSyo2byRsuOUbClKN5e/iOZS+Dphb6S9s+DT2P5C6lfxDrZ36ufoVwM61Guf5uesSOuHl+H8Ch/982Vazyo8AKlKmUEdmU/h/vmMhNfRJxQhy1gl87azTp/9kH7dcvkgjg9+PKx4vdvEAd6fWTma25Ai7bN4gNvchvTCISmlB/0eBI1Q+ACU2+jvgaoUD0ia2xAvAx/A8ECVggACCCCAAAIIIIAAAggggAACCCCAAAIIIIAAAggggAACCCCAAAIIIIAAAggggAACCCCAAAIIIIAAAggggAACCCCAAAIIIIAAAggggAACCCCAAAIIIIAAAggggAACCCCAAAIIIIAAAggggAACCCCAAAIIIIAAAggggAACCCCAAAIIIIAAAggggAACCCCAAAIIIIAAAggggAACCCCAAAIIIIAAAggggAACCCCAAAIIIIAAAggggAACCCCAAAIIIIAAAggggAACCCCAAAIIIIAAAggggAACCCCAAAIIIIAAAggggAACCCCAAAIIIIAAAggggAACCCCAAAIIIIAAAggggAACCCCAAAIIIIAAAggggAACCCCAAAIIIIAAAggggAACCCCAAAIIIIAAAggggAACCCCAAAIIIIAAAggggAACCCCAAAIIIIAAAggggAACCCCAAAIIIIAAAggggAACCCCAAAIIIIAAAggggAACCCCAAAIIIIAAAggggAACCCCAAAIIIIAAAggggAACCCCAAAIIIIAAAggggAACCCCAAAIIIIAAAggggAACCCCAAAIIIIAAAggggAACCCCAAAIIIIAAAggggAACCCCAAAIIIIAAAggggAACCCCAAAIIIIAAAggggAACCCCAAAIIIIAAAggggAACCCCAAAIIIIAAAggggAACCCCAAAIIIIAAAggggAACCCCAAAIIIIAAAggggAACCCCAAAIIIIAAAggggAACCCCAAAIIIIAAAggggAACCCCAAAIIIIAAAggggAACCCCAAAIIIIAAAggggAACCCCAAAIIIIAAAggggAACCCCAAAIIIIAAAggggAACCCCAAAIIIIAAAggggAACCCCAAAIIIIAAAggggAACCCCAAAIIIIAAAggggAACCCCAAAIIIIAAAggggAACCCCAAAIIIIAAAggggAACCCCAAAIIIIAAAggggAACCCCAAAIIIIAAAggggAACCCCAAAIIIIAAAggggAACCCCAAAIIIIAAAggggAACCCCAAAIIIIAAAggggAACCCCAAAIIIIAAAggggAACCCCAAAIIIIAAAggggAACCCCAAAIIIIAAAggggAACCCCAAAIIIIAAAggggAACCCCAAAIIIIAAAggggAACCCCAAAIIIIAAAggggAACCCCAAAIIIIAAAggggAACCCCAAAIIIIAAAggggAACCCCAAAIIIIAAAggggAACCCCAAAIIIIAAAggggAACCCCAAAIIIIAAAggggAACCCCAAAIIIIAAAggggAACCCCAAAIIIIAAAggggAACCCCAAAIIIIAAAggggAACCCCAAAIIIIAAAggggAACCCCAAAIIIIAAAggggAACCCCAAAIIIIAAAggggAACCCCAAAIIIIAAAggggAACCCCAAAIIIIAAAggggAACCCCAAAIIIIAAAggggAACCCCAAAIIIIAAAggggAACCCCAAAIIIIAAAggggAACCCCAAAIIIIAAAggggAACCCCAAAIIIIAAAggggAACCCCAAAIIIIAAAggggAACCCCAAAIIIIAAAggggAACCCCAAAIIIIAAAggggAACCCCAAAIIIIAAAggggAACCCCAAAIIIIAAAggggAACCCCAAAIIIIAAAggggAACCCCAAAIIIIAAAggggAACCCCAAAIIIIAAAggggAACCCCAAAIIIIAAAggggAACCCCAAAIIIIAAAggggAACCCCAAAIIIIAAAggggAACCCCAAAIIIIAAAggggAACCCCAAAIIIIAAAggggAACCCCAAAIIIIAAAggggAACCCCAAAIIIIAAAggggAACCCCAAAIIIIAAAggggAACCCCAAAIIIIAAAggggAACCCCAAAIIIIAAAggggAACCCCAAAIIIIAAAggggAACCCCAAAIIIIAAAggggAACCCCAAAIIIIAAAggggAACCCCAAAIIIIAAAggggAACCCCAAAIIIIAAAggggAACCCCAAAIIIIAAAggggAACCCCAAAIIIIAAAggggAACCCCAAAIIIIAAAggggAACCCCAAAIIIIAAAggggAACCCCAAAIIIIAAAggggAACCCCAAAIIIIAAAggggAACCCCAAAIIIIAAAggggAACCCCAAAIIIIAAAggggAACCCCAAAIIIIAAAggggAACCCCAAAIIIIAAAggggAACCCCAAAIIIIAAAggggAACCCCAAAIIIIAAAggggAACCCCAAAIIIIAAAggggAACCCCAAAIIIIAAAggggAACCCCAAAIIIIAAAggggAACCCCAAAIIIIAAAggggAACCCCAAAIIIIAAAggggAACCCCAAAIIIIAAAggggAACCCCAAAIIIIAAAggggAACCCCAAAIIIIAAAggggAACCCCAAAIIIIAAAggggAACCCCAAAIIIIAAAggggAACCCCAAAIIIIAAAggggAACCCCAAAIIIIAAAggggAACCCCAAAIIIIAAAggggAACCCCAAAIIIIAAAggggAACCCCAAAIIIIAAAggggAACCCCAAAIIIIAAAggggAACCCCAAAIIIIAAAggggAACCCCAAAIIIIAAAggggAACCCCAAAIIIIAAAggggAACCCCAAAIIIIAAAggggAACCCCAAAIIIIAAAggggAACCCCAAAIIIIAAAggggAACCCCAAAIIIIAAAggggAACCCCAAAIIIIAAAggggAACCCCAAAIIIIAAAggggAACCCCAAAIIIIAAAggggAACCCCAAAIIIIAAAggggAACCCCAAAIIIIAAAggggAACCCCAAAIIIIAAAggggAACCCCAAAIIIIAAAggggAACCCCAAAIIIIAAAggggAACCCCAAAIIIIAAAggggAACCCCAAAIIIIAAAggggAACCCCAAAIIIIAAAggggAACCCCAAAIIIIAAAggggAACCCCAAAIIIIAAAggggAACCCCAAAIIIIAAAggggAACCCCAAAIIIIAAAggggAACCCCAAAIIIIAAAggggAACCCCAAAIIIIAAAggggAACCCCAAAIIIIAAAggggAACCCCAAAIIIIAAAggggAACCCCAAAIIIIAAAggggAACCCCAAAIIIIAAAggggAACCCCAAAIIIIAAAggggAACCCCAAAIIIIAAAggggAACCCCAAAIIIIAAAggggAACCCCAAAIIIIAAAggggAACCCCAAAIIIIAAAggggAACCCCAAAIIIIAAAggggAACCCCAAAIIIIAAAggggAACCCCAAAIIIIAAAggggAACCCBQa4H/A6LXPzup3zjGAAAAAElFTkSuQmCC;clipPath=inset(17.67% 11.67% 18.33% 10.67%);" vertex="1" parent="1">
                    <mxGeometry x="420" y="202.5" width="42.47" height="35" as="geometry"/>
                </mxCell>
                <mxCell id="12" value="VM #1" style="rounded=0;whiteSpace=wrap;html=1;fillColor=#f8cecc;strokeColor=#b85450;" vertex="1" parent="1">
                    <mxGeometry x="40" y="120" width="60" height="40" as="geometry"/>
                </mxCell>
                <mxCell id="15" value="VM #n" style="rounded=0;whiteSpace=wrap;html=1;fillColor=#f8cecc;strokeColor=#b85450;" vertex="1" parent="1">
                    <mxGeometry x="169" y="120" width="60" height="40" as="geometry"/>
                </mxCell>
                <mxCell id="16" value="・・・" style="text;html=1;align=center;verticalAlign=middle;resizable=0;points=[];autosize=1;strokeColor=none;fillColor=none;fontStyle=1" vertex="1" parent="1">
                    <mxGeometry x="104.5" y="125" width="60" height="30" as="geometry"/>
                </mxCell>
                <mxCell id="17" value="VM #1" style="rounded=0;whiteSpace=wrap;html=1;fillColor=#f8cecc;strokeColor=#b85450;" vertex="1" parent="1">
                    <mxGeometry x="290" y="120" width="60" height="40" as="geometry"/>
                </mxCell>
                <mxCell id="18" value="VM #n" style="rounded=0;whiteSpace=wrap;html=1;fillColor=#f8cecc;strokeColor=#b85450;" vertex="1" parent="1">
                    <mxGeometry x="419" y="120" width="60" height="40" as="geometry"/>
                </mxCell>
                <mxCell id="19" value="・・・" style="text;html=1;align=center;verticalAlign=middle;resizable=0;points=[];autosize=1;strokeColor=none;fillColor=none;fontStyle=1" vertex="1" parent="1">
                    <mxGeometry x="353.5" y="125" width="60" height="30" as="geometry"/>
                </mxCell>
                <mxCell id="20" value="" style="shape=curlyBracket;whiteSpace=wrap;html=1;rounded=1;flipH=1;labelPosition=right;verticalLabelPosition=middle;align=left;verticalAlign=middle;fillColor=#d5e8d4;strokeWidth=3;strokeColor=#82b366;" vertex="1" parent="1">
                    <mxGeometry x="590" y="200" width="20" height="80" as="geometry"/>
                </mxCell>
                <mxCell id="21" value="" style="shape=curlyBracket;whiteSpace=wrap;html=1;rounded=1;flipH=1;labelPosition=right;verticalLabelPosition=middle;align=left;verticalAlign=middle;fillColor=#f8cecc;strokeWidth=3;strokeColor=#b85450;" vertex="1" parent="1">
                    <mxGeometry x="590" y="120" width="20" height="80" as="geometry"/>
                </mxCell>
                <mxCell id="22" value="" style="shape=curlyBracket;whiteSpace=wrap;html=1;rounded=1;flipH=1;labelPosition=right;verticalLabelPosition=middle;align=left;verticalAlign=middle;fillColor=#CCCCCC;strokeWidth=3;" vertex="1" parent="1">
                    <mxGeometry x="590" y="280" width="20" height="80" as="geometry"/>
                </mxCell>
                <mxCell id="25" value="ユーザ用&lt;br&gt;検証環境" style="text;html=1;align=center;verticalAlign=middle;resizable=0;points=[];autosize=1;strokeColor=none;fillColor=none;" vertex="1" parent="1">
                    <mxGeometry x="615" y="140" width="70" height="40" as="geometry"/>
                </mxCell>
                <mxCell id="26" value="検討対象外" style="text;html=1;align=center;verticalAlign=middle;resizable=0;points=[];autosize=1;strokeColor=none;fillColor=none;" vertex="1" parent="1">
                    <mxGeometry x="610" y="305" width="80" height="30" as="geometry"/>
                </mxCell>
                <mxCell id="28" value="検証環境基盤" style="text;html=1;align=center;verticalAlign=middle;resizable=0;points=[];autosize=1;strokeColor=none;fillColor=none;" vertex="1" parent="1">
                    <mxGeometry x="610" y="225" width="100" height="30" as="geometry"/>
                </mxCell>
                <mxCell id="31" value="KVM" style="rounded=0;whiteSpace=wrap;html=1;fillColor=#f8cecc;strokeColor=#b85450;" vertex="1" parent="1">
                    <mxGeometry x="510" y="160" width="70" height="40" as="geometry"/>
                </mxCell>
            </root>
        </mxGraphModel>
    </diagram>
</mxfile>